<svg xmlns="http://www.w3.org/2000/svg" width="79" height="78" viewBox="0 0 79 78" fill="none">
    <path d="M11.6638 48.2732H1.59663C1.24374 48.2732 0.959473 47.9889 0.959473 47.636V1.34858C0.959473 0.995693 1.24374 0.711426 1.59663 0.711426H62.9995C63.3524 0.711426 63.6367 0.995693 63.6367 1.34858V15.9347C63.6367 16.2876 63.3524 16.5719 62.9995 16.5719C62.6466 16.5719 62.3624 16.2876 62.3624 15.9347V1.98575H2.23379V46.9989H11.6638C12.0167 46.9989 12.301 47.2831 12.301 47.636C12.301 47.9889 12.0167 48.2732 11.6638 48.2732Z" fill="#222222"/>
    <path d="M54.3243 62.5261H11.5854C11.2325 62.5261 10.9482 62.2419 10.9482 61.889V15.6015C10.9482 15.2486 11.2325 14.9644 11.5854 14.9644H72.9785C73.3314 14.9644 73.6157 15.2486 73.6157 15.6015V49.2633C73.6157 49.6162 73.3314 49.9005 72.9785 49.9005C72.6256 49.9005 72.3414 49.6162 72.3414 49.2633V16.2387H12.2226V61.2518H54.3243C54.6772 61.2518 54.9615 61.5361 54.9615 61.889C54.9615 62.2419 54.6772 62.5261 54.3243 62.5261Z" fill="#222222"/>
    <path d="M72.5669 26.483H35.6703C35.5429 26.483 35.4252 26.4438 35.3174 26.3752L30.8573 23.454H12.0659C11.713 23.454 11.4287 23.1697 11.4287 22.8169C11.4287 22.464 11.713 22.1797 12.0659 22.1797H31.0435C31.171 22.1797 31.2886 22.2189 31.3964 22.2875L35.8566 25.2087H72.5669C72.9198 25.2087 73.2041 25.4929 73.2041 25.8458C73.2041 26.1987 72.9198 26.483 72.5669 26.483Z" fill="#222222"/>
    <path d="M67.2249 22.8745C66.1466 22.8745 65.2056 21.9236 65.2056 20.8454C65.2056 19.6789 66.1074 18.728 67.2249 18.728C68.3424 18.728 69.3226 19.6789 69.3226 20.8454C69.3226 21.9432 68.362 22.8745 67.2249 22.8745ZM67.2249 20.0122C66.8328 20.0122 66.4799 20.4043 66.4799 20.8552C66.4799 21.2375 66.8426 21.61 67.2249 21.61C67.666 21.61 68.0483 21.2571 68.0483 20.8552C68.0483 20.3945 67.6856 20.0122 67.2249 20.0122Z" fill="#222222"/>
    <path d="M62.3523 22.8745C61.274 22.8745 60.333 21.9236 60.333 20.8454C60.333 19.6985 61.2544 18.728 62.3523 18.728C63.509 18.728 64.4501 19.6789 64.4501 20.8454C64.4501 21.9432 63.4894 22.8745 62.3523 22.8745ZM62.3523 20.0122C61.9602 20.0122 61.6073 20.4043 61.6073 20.8552C61.6073 21.2375 61.97 21.61 62.3523 21.61C62.7934 21.61 63.1757 21.2571 63.1757 20.8552C63.1757 20.3846 62.813 20.0122 62.3523 20.0122Z" fill="#222222"/>
    <path d="M62.5091 11.9054H25.6026C25.4752 11.9054 25.3576 11.8661 25.2498 11.7975L20.7896 8.87638H2.07663C1.72373 8.87638 1.43945 8.5921 1.43945 8.23921C1.43945 7.88632 1.72373 7.60205 2.07663 7.60205H20.9759C21.1033 7.60205 21.2209 7.64126 21.3287 7.70988L25.7889 10.631H62.5091C62.862 10.631 63.1462 10.9153 63.1462 11.2682C63.1462 11.6211 62.862 11.9054 62.5091 11.9054Z" fill="#222222"/>
    <path d="M57.2359 8.29882C56.0988 8.29882 55.1382 7.36757 55.1382 6.26969C55.1382 5.10319 56.0792 4.15234 57.2359 4.15234C58.3338 4.15234 59.2552 5.1228 59.2552 6.26969C59.2552 7.34797 58.3142 8.29882 57.2359 8.29882ZM57.2359 5.42667C56.7752 5.42667 56.4125 5.79917 56.4125 6.26969C56.4125 6.62258 56.7458 7.01467 57.2359 7.01467C57.6084 7.01467 57.9809 6.64218 57.9809 6.26969C57.9809 5.76976 57.5888 5.42667 57.2359 5.42667Z" fill="#222222"/>
    <path d="M52.2957 8.29882C51.2174 8.29882 50.2764 7.34797 50.2764 6.26969C50.2764 5.1228 51.1978 4.15234 52.2957 4.15234C53.4524 4.15234 54.3934 5.10319 54.3934 6.26969C54.3934 7.36757 53.4328 8.29882 52.2957 8.29882ZM52.2957 5.42667C51.9428 5.42667 51.5507 5.76976 51.5507 6.26969C51.5507 6.65199 51.9232 7.01467 52.2957 7.01467C52.776 7.01467 53.1191 6.62258 53.1191 6.26969C53.1191 5.79917 52.7564 5.42667 52.2957 5.42667Z" fill="#222222"/>
    <path d="M42.9634 34.8437H17.8984C17.5455 34.8437 17.2612 34.5594 17.2612 34.2065C17.2612 33.8536 17.5455 33.5693 17.8984 33.5693H42.9634C43.3163 33.5693 43.6006 33.8536 43.6006 34.2065C43.6006 34.5594 43.3163 34.8437 42.9634 34.8437Z" fill="#222222"/>
    <path d="M50.0997 34.8437H46.0512C45.6983 34.8437 45.4141 34.5594 45.4141 34.2065C45.4141 33.8536 45.6983 33.5693 46.0512 33.5693H50.0997C50.4525 33.5693 50.7368 33.8536 50.7368 34.2065C50.7368 34.5594 50.4525 34.8437 50.0997 34.8437Z" fill="#222222"/>
    <path d="M37.6112 38.8525H17.8984C17.5455 38.8525 17.2612 38.5682 17.2612 38.2153C17.2612 37.8624 17.5455 37.5781 17.8984 37.5781H37.6112C37.9641 37.5781 38.2484 37.8624 38.2484 38.2153C38.2484 38.5682 37.9641 38.8525 37.6112 38.8525Z" fill="#222222"/>
    <path d="M50.0997 38.8525H46.0512C45.6983 38.8525 45.4141 38.5682 45.4141 38.2153C45.4141 37.8624 45.6983 37.5781 46.0512 37.5781H50.0997C50.4525 37.5781 50.7368 37.8624 50.7368 38.2153C50.7368 38.5682 50.4525 38.8525 50.0997 38.8525Z" fill="#222222"/>
    <path d="M43.0511 38.8525H40.2182C39.8653 38.8525 39.5811 38.5682 39.5811 38.2153C39.5811 37.8624 39.8653 37.5781 40.2182 37.5781H43.0511C43.404 37.5781 43.6883 37.8624 43.6883 38.2153C43.6883 38.5682 43.404 38.8525 43.0511 38.8525Z" fill="#222222"/>
    <path d="M50.099 42.538H30.396C30.0431 42.538 29.7588 42.2537 29.7588 41.9008C29.7588 41.548 30.0431 41.2637 30.396 41.2637H50.099C50.4519 41.2637 50.7362 41.548 50.7362 41.9008C50.7362 42.2537 50.4519 42.538 50.099 42.538Z" fill="#222222"/>
    <path d="M21.9664 42.538H17.9082C17.5553 42.538 17.271 42.2537 17.271 41.9008C17.271 41.548 17.5553 41.2637 17.9082 41.2637H21.9664C22.3193 41.2637 22.6035 41.548 22.6035 41.9008C22.6035 42.2537 22.3193 42.538 21.9664 42.538Z" fill="#222222"/>
    <path d="M27.7987 42.538H24.956C24.6031 42.538 24.3188 42.2537 24.3188 41.9008C24.3188 41.548 24.6031 41.2637 24.956 41.2637H27.7987C28.1516 41.2637 28.4359 41.548 28.4359 41.9008C28.4359 42.2537 28.1516 42.538 27.7987 42.538Z" fill="#222222"/>
    <path d="M50.0993 46.5585H25.3676C25.0147 46.5585 24.7305 46.2742 24.7305 45.9213C24.7305 45.5684 25.0147 45.2842 25.3676 45.2842H50.0993C50.4522 45.2842 50.7365 45.5684 50.7365 45.9213C50.7365 46.2742 50.4522 46.5585 50.0993 46.5585Z" fill="#222222"/>
    <path d="M21.9664 46.5585H17.9082C17.5553 46.5585 17.271 46.2742 17.271 45.9213C17.271 45.5684 17.5553 45.2842 17.9082 45.2842H21.9664C22.3193 45.2842 22.6035 45.5684 22.6035 45.9213C22.6035 46.2742 22.3193 46.5585 21.9664 46.5585Z" fill="#222222"/>
    <path d="M37.6112 50.4784H17.8984C17.5455 50.4784 17.2612 50.1941 17.2612 49.8413C17.2612 49.4884 17.5455 49.2041 17.8984 49.2041H37.6112C37.9641 49.2041 38.2484 49.4884 38.2484 49.8413C38.2484 50.1941 37.9641 50.4784 37.6112 50.4784Z" fill="#222222"/>
    <path d="M50.0997 50.4784H46.0512C45.6983 50.4784 45.4141 50.1941 45.4141 49.8413C45.4141 49.4884 45.6983 49.2041 46.0512 49.2041H50.0997C50.4525 49.2041 50.7368 49.4884 50.7368 49.8413C50.7368 50.1941 50.4525 50.4784 50.0997 50.4784Z" fill="#222222"/>
    <path d="M43.0511 50.4784H40.2182C39.8653 50.4784 39.5811 50.1941 39.5811 49.8413C39.5811 49.4884 39.8653 49.2041 40.2182 49.2041H43.0511C43.404 49.2041 43.6883 49.4884 43.6883 49.8413C43.6883 50.1941 43.404 50.4784 43.0511 50.4784Z" fill="#222222"/>
    <path d="M17.1726 19.8461H15.1435C14.7906 19.8461 14.5063 19.5618 14.5063 19.2089C14.5063 18.856 14.7906 18.5718 15.1435 18.5718H17.1726C17.5255 18.5718 17.8098 18.856 17.8098 19.2089C17.8098 19.5618 17.5255 19.8461 17.1726 19.8461Z" fill="#222222"/>
    <path d="M20.5838 19.8461H18.5547C18.2018 19.8461 17.9175 19.5618 17.9175 19.2089C17.9175 18.856 18.2018 18.5718 18.5547 18.5718H20.5838C20.9367 18.5718 21.2209 18.856 21.2209 19.2089C21.2209 19.5618 20.9367 19.8461 20.5838 19.8461Z" fill="#222222"/>
    <path d="M23.9861 19.8461H21.957C21.6041 19.8461 21.3198 19.5618 21.3198 19.2089C21.3198 18.856 21.6041 18.5718 21.957 18.5718H23.9861C24.339 18.5718 24.6233 18.856 24.6233 19.2089C24.6233 19.5618 24.339 19.8461 23.9861 19.8461Z" fill="#222222"/>
    <path d="M7.1155 5.59415H5.08638C4.73349 5.59415 4.44922 5.30989 4.44922 4.957C4.44922 4.60411 4.73349 4.31982 5.08638 4.31982H7.1155C7.46839 4.31982 7.75266 4.60411 7.75266 4.957C7.75266 5.30989 7.46839 5.59415 7.1155 5.59415Z" fill="#222222"/>
    <path d="M10.5266 5.59415H8.49751C8.14462 5.59415 7.86035 5.30989 7.86035 4.957C7.86035 4.60411 8.14462 4.31982 8.49751 4.31982H10.5266C10.8795 4.31982 11.1638 4.60411 11.1638 4.957C11.1638 5.30989 10.8795 5.59415 10.5266 5.59415Z" fill="#222222"/>
    <path d="M13.9285 5.59415H11.8994C11.5465 5.59415 11.2622 5.30989 11.2622 4.957C11.2622 4.60411 11.5465 4.31982 11.8994 4.31982H13.9285C14.2814 4.31982 14.5656 4.60411 14.5656 4.957C14.5656 5.30989 14.2814 5.59415 13.9285 5.59415Z" fill="#222222"/>
    <path d="M65.8422 77.2788C65.6853 77.2788 65.5383 77.22 65.4109 77.1122C63.6268 75.485 62.1074 74.142 60.8037 73.0049C53.1283 66.251 53.0499 66.0746 53.1675 54.341C53.1773 52.7725 53.1969 50.9983 53.1969 48.9594C53.1969 48.7731 53.2852 48.5869 53.4322 48.4692C53.5792 48.3516 53.7753 48.2928 53.9517 48.332C58.1668 49.1162 62.0682 48.3222 65.4795 45.9696C65.7147 45.803 66.0382 45.8226 66.2539 46.0088C68.8319 48.2536 72.5569 48.9986 77.6738 48.3222C77.86 48.3026 78.0365 48.3516 78.1737 48.479C78.311 48.5967 78.3894 48.7731 78.3894 48.9594C78.3894 51.4982 78.4286 53.6254 78.458 55.4388C78.6443 65.8491 78.5658 66.0157 70.5376 73.2402C69.3123 74.3381 67.9007 75.6124 66.2637 77.122C66.1461 77.2396 65.9892 77.2886 65.8324 77.2886L65.8422 77.2788ZM54.4713 49.7044C54.4713 51.4394 54.4517 52.9686 54.4419 54.341C54.37 61.8497 56.7716 67.7475 61.6467 72.0345C62.8426 73.0833 64.2346 74.3087 65.8324 75.7692C67.2929 74.4263 68.5673 73.2794 69.6848 72.2795C74.8017 67.6789 77.3013 62.0686 77.1837 55.4486C77.1543 53.8116 77.1249 51.9001 77.115 49.6651C72.2432 50.2043 68.4889 49.4005 65.7932 47.2733C62.4015 49.4789 58.5785 50.2925 54.4615 49.6946L54.4713 49.7044Z" fill="#222222"/>
    <path d="M65.8427 71.9456C65.6662 71.9456 65.4996 71.877 65.3722 71.7398C65.1369 71.4751 65.1565 71.0732 65.4114 70.838C66.274 70.0538 67.0386 69.3676 67.7248 68.75C71.4497 65.4106 73.2534 61.3851 73.1358 56.6733C73.1162 55.8597 73.0966 54.9481 73.0769 53.9384C70.1558 53.9384 67.7248 53.3895 65.6565 52.223C63.4607 53.3405 61.0101 53.9188 58.5006 53.9384C58.4418 56.0166 58.4418 58.0849 58.4418 60.1042C58.4418 60.4571 58.1575 60.7414 57.8046 60.7414C57.4517 60.7414 57.1675 60.4571 57.1675 60.1042C57.1675 57.879 57.1675 55.5853 57.2459 53.2719C57.2557 52.919 57.5204 52.6739 57.9027 52.6543C60.5199 52.7425 63.1078 52.1544 65.3722 50.9389C65.5682 50.8311 65.8133 50.8408 65.9995 50.9585C68.0581 52.2034 70.5675 52.7621 73.6749 52.6641C73.8415 52.6641 74.0082 52.7229 74.1356 52.8406C74.2631 52.9582 74.3317 53.1248 74.3317 53.2915C74.3513 54.5658 74.3709 55.6735 74.4003 56.6537C74.5865 64.2507 74.5277 64.3683 68.5678 69.7205C67.8816 70.338 67.117 71.0242 66.2642 71.7986C66.1466 71.9064 65.9897 71.9653 65.8329 71.9653L65.8427 71.9456Z" fill="#222222"/>
</svg>