<svg xmlns="http://www.w3.org/2000/svg" width="83" height="76" viewBox="0 0 83 76" fill="none">
    <path d="M41.4715 26.2792C35.8247 26.2792 29.98 24.4873 29.98 21.4764C29.98 20.5283 30.6155 19.601 31.7198 18.9238C31.9386 18.7884 32.2095 18.7884 32.4283 18.9238C34.3244 20.1115 37.8667 20.8721 41.4611 20.8721C45.0554 20.8721 48.6081 20.1011 50.4938 18.9238C50.7126 18.7884 50.9835 18.7884 51.2023 18.9238C52.2754 19.5698 52.8588 20.4762 52.8588 21.4764C52.8588 24.206 47.9517 26.2792 41.4506 26.2792H41.4715ZM32.1053 20.3095C31.6156 20.6742 31.3344 21.1013 31.3344 21.4764C31.3344 23.1016 35.6684 24.9144 41.4715 24.9144C47.2745 24.9144 51.5252 23.1016 51.5252 21.4764C51.5252 21.0596 51.2856 20.6533 50.8481 20.3095C48.6706 21.5076 45.1387 22.2369 41.4819 22.2369C37.825 22.2369 34.2828 21.4972 32.1157 20.2991L32.1053 20.3095Z" fill="#222222"/>
    <path d="M41.4715 22.2473C35.8247 22.2473 29.98 20.4554 29.98 17.4549C29.98 16.4964 30.6155 15.5691 31.7303 14.9024C31.9491 14.7669 32.2199 14.7773 32.4387 14.9024C34.3453 16.0901 37.8876 16.861 41.4715 16.861C45.0554 16.861 48.6081 16.0901 50.5042 14.9024C50.723 14.7669 50.9939 14.7669 51.2127 14.9024C52.265 15.5379 52.8692 16.4651 52.8692 17.4549C52.8692 20.57 46.9932 22.2473 41.4611 22.2473H41.4715ZM32.1053 16.2776C31.6156 16.6422 31.3448 17.0694 31.3448 17.4445C31.3448 19.0697 35.6788 20.8825 41.4819 20.8825C47.2849 20.8825 51.5357 19.0697 51.5357 17.4445C51.5357 17.0381 51.296 16.6214 50.8585 16.2776C48.681 17.4757 45.1492 18.2154 41.4923 18.2154C37.8354 18.2154 34.3036 17.4757 32.1157 16.2776H32.1053Z" fill="#222222"/>
    <path d="M41.4715 18.2151C35.8247 18.2151 29.98 16.4231 29.98 13.4226C29.98 12.4745 30.6155 11.5369 31.7303 10.8701C31.9491 10.7347 32.2199 10.7451 32.4387 10.8701C34.3453 12.0578 37.8876 12.8184 41.4715 12.8184C45.0554 12.8184 48.6081 12.0474 50.5042 10.8701C50.723 10.7347 50.9939 10.7347 51.2127 10.8701C52.265 11.5057 52.8692 12.4328 52.8692 13.4226C52.8692 16.5377 46.9932 18.2151 41.4611 18.2151H41.4715ZM32.1053 12.2557C31.6156 12.6204 31.3344 13.0475 31.3344 13.4226C31.3344 15.0479 35.6684 16.8607 41.4715 16.8607C47.2745 16.8607 51.5252 15.0479 51.5252 13.4226C51.5252 13.0163 51.2856 12.5995 50.8481 12.2557C48.6602 13.4539 45.1387 14.1832 41.4819 14.1832C37.825 14.1832 34.2932 13.4435 32.1157 12.2454L32.1053 12.2557Z" fill="#222222"/>
    <path d="M41.4715 14.1835C35.8247 14.1835 29.98 12.3915 29.98 9.39104C29.98 8.44296 30.6155 7.51577 31.7198 6.83858C31.949 6.70314 32.2304 6.71351 32.4491 6.85937C34.2515 8.07832 37.6167 8.79718 41.4611 8.79718C45.3055 8.79718 48.681 8.06791 50.473 6.85937C50.6918 6.71351 50.9731 6.70314 51.2023 6.83858C52.2545 7.4741 52.8588 8.40129 52.8588 9.39104C52.8588 12.5061 46.9828 14.1835 41.4506 14.1835H41.4715ZM32.0949 8.23461C31.6157 8.59925 31.3448 9.01598 31.3448 9.40147C31.3448 11.0267 35.6788 12.8395 41.4819 12.8395C47.2849 12.8395 51.5357 11.0267 51.5357 9.40147C51.5357 8.99515 51.296 8.58884 50.8689 8.24504C48.7956 9.45357 45.3367 10.1724 41.4923 10.1724C37.6479 10.1724 34.189 9.45357 32.1157 8.24504L32.0949 8.23461Z" fill="#222222"/>
    <path d="M41.4715 10.1619C35.8976 10.1619 29.98 8.51579 29.98 5.45277C29.98 2.38976 35.8247 0.649902 41.4715 0.649902C47.9726 0.649902 52.8796 2.71273 52.8796 5.45277C52.8796 8.50537 47.0037 10.1619 41.4715 10.1619ZM41.4715 2.01471C35.6684 2.01471 31.3344 3.8275 31.3344 5.45277C31.3344 7.07805 35.6684 8.79704 41.4715 8.79704C47.2745 8.79704 51.5252 7.03637 51.5252 5.45277C51.5252 3.86918 47.2329 2.01471 41.4715 2.01471Z" fill="#222222"/>
    <path d="M21.531 61.7436C21.3331 61.7436 21.1455 61.6603 21.0101 61.4936C20.7705 61.2019 20.8121 60.7747 21.1039 60.5455L40.8051 44.4491V21.5702C40.8051 21.1952 41.1072 20.8931 41.4823 20.8931C41.8573 20.8931 42.1595 21.1952 42.1595 21.5702V44.4491L61.8607 60.5455C62.1524 60.7852 62.1941 61.2123 61.9545 61.4936C61.7148 61.7853 61.2877 61.827 61.0064 61.5874L41.4823 45.6368L21.9582 61.5874C21.8331 61.6916 21.6769 61.7436 21.531 61.7436Z" fill="#222222"/>
    <path d="M11.5086 75.3498C5.93475 75.3498 0.0170898 73.6934 0.0170898 70.6408C0.0170898 69.401 0.923497 68.5987 1.7153 68.0362C1.9445 67.8695 2.25704 67.8695 2.48625 68.0362C4.28863 69.2447 7.65378 69.974 11.5086 69.974C15.3634 69.974 18.7494 69.2343 20.5309 68.0362C20.7706 67.8799 21.0727 67.8799 21.3019 68.0362C21.9895 68.5258 22.9168 69.3385 22.9168 70.6408C22.9168 73.7038 17.0408 75.3498 11.5086 75.3498ZM2.15285 69.401C1.47565 69.9636 1.37147 70.3386 1.37147 70.6303C1.37147 72.2139 5.70554 73.985 11.5086 73.985C17.3116 73.985 21.5624 72.2139 21.5624 70.6303C21.5624 70.3074 21.4686 69.9219 20.8747 69.401C18.7911 70.5991 15.353 71.3075 11.519 71.3075C7.68505 71.3075 4.23654 70.5991 2.16328 69.401H2.15285Z" fill="#222222"/>
    <path d="M11.5086 71.3181C5.93475 71.3181 0.0170898 69.672 0.0170898 66.609C0.0170898 65.3484 0.986017 64.5149 1.72572 64.0044C1.95493 63.8377 2.25705 63.8377 2.49668 64.0044C4.29906 65.2234 7.67463 65.9422 11.519 65.9422C15.3634 65.9422 18.7598 65.2025 20.5414 64.0044C20.7706 63.8481 21.0831 63.8481 21.3123 64.0044C22.0104 64.4941 22.9272 65.2963 22.9272 66.609C22.9272 69.6616 17.0512 71.3181 11.519 71.3181H11.5086ZM2.15285 65.3692C1.47565 65.9318 1.37147 66.3173 1.37147 66.609C1.37147 68.1926 5.70554 69.9637 11.5086 69.9637C17.3116 69.9637 21.5624 68.1926 21.5624 66.609C21.5624 66.286 21.4686 65.8902 20.8747 65.3797C18.7911 66.5778 15.3426 67.2862 11.519 67.2862C7.69547 67.2862 4.23654 66.5778 2.16328 65.3692H2.15285Z" fill="#222222"/>
    <path d="M11.5086 67.286C5.93475 67.286 0.0170898 65.64 0.0170898 62.577C0.0170898 61.3268 0.933925 60.5245 1.72572 59.9619C1.95493 59.7952 2.25705 59.7952 2.49668 59.9619C4.29906 61.1809 7.67463 61.8997 11.519 61.8997C15.3634 61.8997 18.7598 61.1601 20.5414 59.9619C20.7706 59.8057 21.0831 59.8057 21.3123 59.9619C22.0104 60.4516 22.9272 61.2538 22.9272 62.577C22.9272 65.6296 17.0512 67.286 11.519 67.286H11.5086ZM2.15285 61.3475C1.47565 61.8997 1.37147 62.2852 1.37147 62.5873C1.37147 64.1709 5.70554 65.9317 11.5086 65.9317C17.3116 65.9317 21.5624 64.1709 21.5624 62.5873C21.5624 62.2644 21.4686 61.8685 20.8747 61.3475C18.7911 62.5457 15.3426 63.2646 11.519 63.2646C7.69547 63.2646 4.24696 62.5561 2.16328 61.3475H2.15285Z" fill="#222222"/>
    <path d="M11.5086 63.2642C5.93475 63.2642 0.0170898 61.6181 0.0170898 58.5551C0.0170898 57.6383 0.610944 56.7319 1.7153 55.9401C1.95492 55.7734 2.26747 55.7734 2.49668 55.9401C4.23655 57.1694 7.76838 57.9612 11.4982 57.9612C15.228 57.9612 18.6869 57.1591 20.5205 55.9297C20.7497 55.7734 21.0623 55.7734 21.2915 55.9297C22.6251 56.8778 22.9063 57.8779 22.9063 58.5343C22.9063 61.5973 17.0303 63.2434 11.4982 63.2434L11.5086 63.2642ZM2.14245 57.3257C1.64237 57.7529 1.37147 58.1905 1.37147 58.5551C1.37147 60.1387 5.70554 61.9099 11.5086 61.9099C17.3116 61.9099 21.5624 60.1387 21.5624 58.5551C21.5624 58.1592 21.3227 57.7321 20.8643 57.3257C18.7286 58.5655 15.2175 59.3261 11.5086 59.3261C7.79964 59.3261 4.2053 58.5655 2.14245 57.3257Z" fill="#222222"/>
    <path d="M11.5086 59.316C5.86182 59.316 0.0170898 57.524 0.0170898 54.5235C0.0170898 51.523 5.93475 49.8145 11.5086 49.8145C17.0824 49.8145 22.9168 51.4605 22.9168 54.5235C22.9168 57.2532 18.0097 59.316 11.5086 59.316ZM11.5086 51.1688C5.70554 51.1688 1.37147 52.9399 1.37147 54.5235C1.37147 56.1071 5.70554 57.9616 11.5086 57.9616C17.3116 57.9616 21.5624 56.1488 21.5624 54.5235C21.5624 52.8983 17.4367 51.1688 11.5086 51.1688Z" fill="#222222"/>
    <path d="M70.998 75.3498C65.4658 75.3498 59.5898 73.6934 59.5898 70.6408C59.5898 69.401 60.5067 68.5987 61.2985 68.0362C61.5277 67.8695 61.8298 67.8695 62.0694 68.0362C63.8406 69.2343 67.2578 69.974 70.998 69.974C74.7382 69.974 78.218 69.2551 80.0204 68.0362C80.2496 67.8799 80.5621 67.8799 80.7913 68.0362C81.5831 68.5987 82.5 69.401 82.5 70.6408C82.5 73.7038 76.5719 75.3498 70.998 75.3498ZM61.7256 69.401C61.0484 69.9531 60.9443 70.3282 60.9443 70.6303C60.9443 72.2139 65.0699 73.985 70.998 73.985C76.9261 73.985 81.1351 72.2139 81.1351 70.6303C81.1351 70.3282 81.0309 69.9531 80.3537 69.401C78.2805 70.5991 74.832 71.3075 70.9876 71.3075C67.1432 71.3075 63.7885 70.5991 61.7152 69.401H61.7256Z" fill="#222222"/>
    <path d="M70.998 71.3178C65.4658 71.3178 59.5898 69.6717 59.5898 66.6087C59.5898 65.3377 60.5692 64.5146 61.2985 63.9937C61.5277 63.8374 61.8298 63.827 62.0694 63.9937C63.8406 65.1918 67.2578 65.9315 70.998 65.9315C74.7382 65.9315 78.218 65.2022 80.0204 63.9937C80.2496 63.8374 80.5621 63.8374 80.7913 63.9937C81.5206 64.5042 82.5 65.3377 82.5 66.6087C82.5 69.6613 76.5719 71.3178 70.998 71.3178ZM61.7256 65.3689C61.038 65.9315 60.9443 66.317 60.9443 66.6087C60.9443 68.1923 65.0699 69.9634 70.998 69.9634C76.9261 69.9634 81.1351 68.1923 81.1351 66.6087C81.1351 66.3274 81.0413 65.9315 80.3537 65.3689C78.27 66.5775 74.832 67.2859 70.9876 67.2859C67.1432 67.2859 63.7885 66.5775 61.7152 65.3689H61.7256Z" fill="#222222"/>
    <path d="M70.998 67.2856C65.4658 67.2856 59.5898 65.6395 59.5898 62.5765C59.5898 61.3263 60.5067 60.5241 61.2985 59.9615C61.5277 59.8052 61.8298 59.7948 62.0694 59.9615C63.8406 61.1596 67.2682 61.8993 70.998 61.8993C74.7278 61.8993 78.218 61.17 80.0204 59.9615C80.2496 59.8052 80.5621 59.8052 80.7913 59.9615C81.5831 60.5241 82.5 61.3263 82.5 62.5765C82.5 65.6291 76.5719 67.2856 70.998 67.2856ZM61.7256 61.3471C61.0484 61.8993 60.9443 62.2847 60.9443 62.5869C60.9443 64.1705 65.0699 65.9312 70.998 65.9312C76.9261 65.9312 81.1351 64.1705 81.1351 62.5869C81.1351 62.2847 81.0309 61.8993 80.3537 61.3471C78.27 62.5556 74.832 63.2641 70.9876 63.2641C67.1432 63.2641 63.7989 62.5556 61.7152 61.3471H61.7256Z" fill="#222222"/>
    <path d="M70.998 63.2646C65.4658 63.2646 59.5898 61.6185 59.5898 58.5555C59.5898 57.8887 59.8712 56.8989 61.2047 55.9405C61.4339 55.7738 61.7465 55.7738 61.9757 55.9405C63.7989 57.1802 67.3411 57.9721 70.9876 57.9721C74.634 57.9721 78.2388 57.1907 80.0933 55.9405C80.3329 55.7738 80.6559 55.7842 80.8955 55.9717C81.9373 56.7948 82.4895 57.6803 82.4895 58.5659C82.4895 61.6289 76.5614 63.2751 70.9876 63.2751L70.998 63.2646ZM61.6423 57.3157C61.1839 57.722 60.9443 58.1492 60.9443 58.5451C60.9443 60.1287 65.0699 61.8998 70.998 61.8998C76.9261 61.8998 81.1351 60.1287 81.1351 58.5451C81.1351 58.1908 80.8747 57.7637 80.4163 57.3261C78.2805 58.5659 74.7382 59.3161 70.998 59.3161C67.2578 59.3161 63.778 58.5555 61.6423 57.3157Z" fill="#222222"/>
    <path d="M70.998 59.316C64.4969 59.316 59.5898 57.2532 59.5898 54.5235C59.5898 51.4605 65.4658 49.8145 70.998 49.8145C76.5302 49.8145 82.5 51.4605 82.5 54.5235C82.5 57.5865 76.6552 59.316 70.998 59.316ZM70.998 51.1688C65.0804 51.1688 60.9443 52.9399 60.9443 54.5235C60.9443 56.1071 65.2366 57.9616 70.998 57.9616C76.7594 57.9616 81.1351 56.1488 81.1351 54.5235C81.1351 52.8983 76.8011 51.1688 70.998 51.1688Z" fill="#222222"/>
</svg>