<svg xmlns="http://www.w3.org/2000/svg" width="102" height="76" viewBox="0 0 102 76" fill="none">
    <path d="M31.5174 38.357C26.3027 38.357 22.0571 34.0348 22.0571 28.7182C22.0571 23.4016 26.3027 19.1687 31.5174 19.1687C32.0401 19.1687 32.5628 19.207 33.0983 19.2835C33.7868 15.5096 36.7575 12.4624 40.5441 11.6847C40.9904 5.28437 46.3324 0.197266 52.771 0.197266C59.2096 0.197266 64.8832 5.60311 65.0234 12.2967C67.5988 13.5844 69.6898 15.8028 70.8372 18.493C74.7386 19.9847 76.9698 23.2486 76.9698 27.5198C76.9698 32.3901 72.7497 38.2677 67.4968 38.2677C61.0965 38.2677 55.1297 38.2932 49.2139 38.306C43.3873 38.3315 37.6117 38.3442 31.5301 38.3442L31.5174 38.357ZM31.5174 20.8262C27.208 20.8262 23.7146 24.3706 23.7146 28.7182C23.7146 33.0659 27.1442 36.6995 31.5174 36.6995C37.5989 36.6995 43.3745 36.674 49.2011 36.6613C55.117 36.6358 61.0966 36.623 67.4842 36.623C71.615 36.623 75.2996 31.5359 75.2996 27.5325C75.2996 23.8351 73.3872 21.1322 69.9321 19.9465C69.7026 19.87 69.5241 19.6915 69.4348 19.462C68.4148 16.8483 66.3877 14.7064 63.8632 13.5844C63.5572 13.4569 63.366 13.1509 63.366 12.8322V12.5772C63.366 6.67408 58.6103 1.86747 52.771 1.86747C46.9317 1.86747 42.2525 6.59759 42.176 12.4242C42.176 12.8322 41.8573 13.1764 41.4493 13.2402C37.8029 13.7119 34.9343 16.7081 34.641 20.3545C34.6155 20.5967 34.5008 20.8135 34.3095 20.9537C34.1183 21.0939 33.876 21.1449 33.6465 21.0939C32.9198 20.941 32.2314 20.8644 31.5429 20.8644L31.5174 20.8262Z" fill="#222222"/>
    <path d="M42.3551 48.6077H27.4635C27.0045 48.6077 26.6348 48.238 26.6348 47.779C26.6348 47.32 27.0045 46.9502 27.4635 46.9502H41.5264V32.3009C41.5264 31.8419 41.8961 31.4722 42.3551 31.4722C42.8141 31.4722 43.1838 31.8419 43.1838 32.3009V47.779C43.1838 48.238 42.8141 48.6077 42.3551 48.6077Z" fill="#222222"/>
    <path d="M74.6881 48.6077H59.7965C59.3375 48.6077 58.9678 48.238 58.9678 47.779V32.3009C58.9678 31.8419 59.3375 31.4722 59.7965 31.4722C60.2555 31.4722 60.6253 31.8419 60.6253 32.3009V46.9502H74.6881C75.1471 46.9502 75.5169 47.32 75.5169 47.779C75.5169 48.238 75.1471 48.6077 74.6881 48.6077Z" fill="#222222"/>
    <path d="M50.8205 59.8911C50.3615 59.8911 49.9917 59.5214 49.9917 59.0624V32.3009C49.9917 31.8419 50.3615 31.4722 50.8205 31.4722C51.2794 31.4722 51.6491 31.8419 51.6491 32.3009V59.0624C51.6491 59.5214 51.2794 59.8911 50.8205 59.8911Z" fill="#222222"/>
    <path d="M63.1744 66.3936H38.542C37.7388 66.3936 37.0376 65.6924 37.0376 64.8891V59.7638C37.0376 58.9096 37.7006 58.2466 38.542 58.2466H63.1744C64.0159 58.2466 64.6788 58.9096 64.6788 59.7638V64.8891C64.6788 65.6924 63.9776 66.3936 63.1744 66.3936ZM38.695 64.7362H63.0214V59.904H38.695V64.7362Z" fill="#222222"/>
    <path d="M42.8644 63.321H40.9137C40.4547 63.321 40.085 62.9513 40.085 62.4923C40.085 62.0333 40.4547 61.6636 40.9137 61.6636H42.8644C43.3234 61.6636 43.6931 62.0333 43.6931 62.4923C43.6931 62.9513 43.3234 63.321 42.8644 63.321Z" fill="#222222"/>
    <path d="M46.1671 63.321H44.2165C43.7575 63.321 43.3877 62.9513 43.3877 62.4923C43.3877 62.0333 43.7575 61.6636 44.2165 61.6636H46.1671C46.6261 61.6636 46.9959 62.0333 46.9959 62.4923C46.9959 62.9513 46.6261 63.321 46.1671 63.321Z" fill="#222222"/>
    <path d="M49.5454 63.321H47.5182C47.0592 63.321 46.6895 62.9513 46.6895 62.4923C46.6895 62.0333 47.0592 61.6636 47.5182 61.6636H49.5454C50.0044 61.6636 50.3741 62.0333 50.3741 62.4923C50.3741 62.9513 50.0044 63.321 49.5454 63.321Z" fill="#222222"/>
    <path d="M63.1744 75.8032H38.542C37.7261 75.8032 37.0376 75.0764 37.0376 74.2095V69.1606C37.0376 68.2936 37.7261 67.5669 38.542 67.5669H63.1744C63.9904 67.5669 64.6788 68.2936 64.6788 69.1606V74.2095C64.6788 75.0764 63.9904 75.8032 63.1744 75.8032ZM38.695 74.133H63.0214V69.2116H38.695V74.133Z" fill="#222222"/>
    <path d="M42.8644 72.6409H40.9137C40.4547 72.6409 40.085 72.2711 40.085 71.8121C40.085 71.3532 40.4547 70.9834 40.9137 70.9834H42.8644C43.3234 70.9834 43.6931 71.3532 43.6931 71.8121C43.6931 72.2711 43.3234 72.6409 42.8644 72.6409Z" fill="#222222"/>
    <path d="M46.1671 72.6409H44.2165C43.7575 72.6409 43.3877 72.2711 43.3877 71.8121C43.3877 71.3532 43.7575 70.9834 44.2165 70.9834H46.1671C46.6261 70.9834 46.9959 71.3532 46.9959 71.8121C46.9959 72.2711 46.6261 72.6409 46.1671 72.6409Z" fill="#222222"/>
    <path d="M49.5454 72.6409H47.5182C47.0592 72.6409 46.6895 72.2711 46.6895 71.8121C46.6895 71.3532 47.0592 70.9834 47.5182 70.9834H49.5454C50.0044 70.9834 50.3741 71.3532 50.3741 71.8121C50.3741 72.2711 50.0044 72.6409 49.5454 72.6409Z" fill="#222222"/>
    <path d="M99.9064 51.859H75.3633C74.5219 51.859 73.8589 51.196 73.8589 50.3418V45.2164C73.8589 44.4132 74.5601 43.6992 75.3633 43.6992H99.9064C100.773 43.6992 101.5 44.3877 101.5 45.2164V50.3418C101.5 51.2088 100.812 51.859 99.9064 51.859ZM75.5163 50.2016H99.8426V45.3567H75.5163V50.2016Z" fill="#222222"/>
    <path d="M79.6855 48.7864H77.6583C77.1994 48.7864 76.8296 48.4166 76.8296 47.9576C76.8296 47.4986 77.1994 47.1289 77.6583 47.1289H79.6855C80.1445 47.1289 80.5143 47.4986 80.5143 47.9576C80.5143 48.4166 80.1445 48.7864 79.6855 48.7864Z" fill="#222222"/>
    <path d="M82.9874 48.7864H81.0494C80.5904 48.7864 80.2207 48.4166 80.2207 47.9576C80.2207 47.4986 80.5904 47.1289 81.0494 47.1289H82.9874C83.4463 47.1289 83.8161 47.4986 83.8161 47.9576C83.8161 48.4166 83.4463 48.7864 82.9874 48.7864Z" fill="#222222"/>
    <path d="M86.2897 48.7864H84.339C83.88 48.7864 83.5103 48.4166 83.5103 47.9576C83.5103 47.4986 83.88 47.1289 84.339 47.1289H86.2897C86.7487 47.1289 87.1184 47.4986 87.1184 47.9576C87.1184 48.4166 86.7487 48.7864 86.2897 48.7864Z" fill="#222222"/>
    <path d="M26.7745 51.859H2.14222C1.30075 51.859 0.637695 51.196 0.637695 50.3418V45.2164C0.637695 44.4132 1.33899 43.6992 2.14222 43.6992H26.7745C27.5777 43.6992 28.2917 44.4005 28.2917 45.2164V50.3418C28.2917 51.196 27.6287 51.859 26.7745 51.859ZM2.29521 50.2016H26.6343V45.3567H2.29521V50.2016Z" fill="#222222"/>
    <path d="M6.46447 48.7864H4.51382C4.05483 48.7864 3.68506 48.4166 3.68506 47.9576C3.68506 47.4986 4.05483 47.1289 4.51382 47.1289H6.46447C6.92346 47.1289 7.29323 47.4986 7.29323 47.9576C7.29323 48.4166 6.92346 48.7864 6.46447 48.7864Z" fill="#222222"/>
    <path d="M9.76672 48.7864H7.81599C7.357 48.7864 6.9873 48.4166 6.9873 47.9576C6.9873 47.4986 7.357 47.1289 7.81599 47.1289H9.76672C10.2257 47.1289 10.5954 47.4986 10.5954 47.9576C10.5954 48.4166 10.2257 48.7864 9.76672 48.7864Z" fill="#222222"/>
    <path d="M13.1577 48.7864H11.1305C10.6715 48.7864 10.3018 48.4166 10.3018 47.9576C10.3018 47.4986 10.6715 47.1289 11.1305 47.1289H13.1577C13.6167 47.1289 13.9864 47.4986 13.9864 47.9576C13.9864 48.4166 13.6167 48.7864 13.1577 48.7864Z" fill="#222222"/>
</svg>