<svg xmlns="http://www.w3.org/2000/svg" width="96" height="96" viewBox="0 0 96 96" fill="none">
    <path d="M92.7863 45.2833C91.4577 45.2833 90.3493 46.2412 90.1134 47.5036H74.381V40.7547H82.8002C83.0349 42.0171 84.1432 42.9751 85.473 42.9751C86.9725 42.9751 88.1916 41.7548 88.1916 40.2565C88.1916 38.7583 86.9713 37.538 85.473 37.538C84.1444 37.538 83.0361 38.4959 82.8002 39.7583H74.381V33.9421H83.6919L86.8088 30.8252C87.2469 31.1261 87.7752 31.303 88.3456 31.303C89.8451 31.303 91.0642 30.0827 91.0642 28.5845C91.0642 27.0862 89.8439 25.8659 88.3456 25.8659C86.8473 25.8659 85.6271 27.0862 85.6271 28.5845C85.6271 29.1537 85.804 29.6832 86.1048 30.1212L83.2792 32.9469H74.3822V30.9817C74.3822 29.7602 73.9068 28.6109 73.0428 27.7469L68.2604 22.9644C67.3963 22.1004 66.2482 21.625 65.0255 21.625H63.0603V11.5535L65.886 8.72785C66.3228 9.02871 66.8523 9.20562 67.4228 9.20562C68.9222 9.20562 70.1413 7.98534 70.1413 6.48707C70.1413 4.9888 68.921 3.76852 67.4228 3.76852C65.9245 3.76852 64.7042 4.9888 64.7042 6.48707C64.7042 7.05629 64.8811 7.5858 65.182 8.02385L62.0651 11.1407V21.625H56.2489V14.9508C57.5101 14.7161 58.4692 13.6078 58.4692 12.278C58.4692 10.7785 57.249 9.55942 55.7507 9.55942C54.2524 9.55942 53.0321 10.7797 53.0321 12.278C53.0321 13.6066 53.9901 14.7149 55.2525 14.9508V21.625H48.5036V5.89137C49.7648 5.6567 50.724 4.54834 50.724 3.21855C50.724 1.71908 49.5037 0.5 48.0054 0.5C46.5071 0.5 45.2869 1.72028 45.2869 3.21855C45.2869 4.54714 46.2448 5.6555 47.5072 5.89137V21.6238H40.7584V13.2046C42.0208 12.9699 42.9787 11.8616 42.9787 10.5318C42.9787 9.03232 41.7584 7.81325 40.2601 7.81325C38.7619 7.81325 37.5416 9.03353 37.5416 10.5318C37.5416 11.8604 38.4995 12.9687 39.7619 13.2046V21.6238H33.9457V12.3129L30.8289 9.19599C31.1297 8.75914 31.3066 8.22963 31.3066 7.65921C31.3066 6.15973 30.0863 4.94066 28.5881 4.94066C27.0898 4.94066 25.8695 6.16094 25.8695 7.65921C25.8695 9.15748 27.0898 10.3778 28.5881 10.3778C29.1573 10.3778 29.6868 10.2009 30.1248 9.89999L32.9505 12.7256V21.6226H30.9853C29.7638 21.6226 28.6145 22.098 27.7505 22.962L22.968 27.7445C22.104 28.6085 21.6286 29.7566 21.6286 30.9793V32.9445H11.5571L8.73146 30.1188C9.03232 29.682 9.20923 29.1525 9.20923 28.5821C9.20923 27.0826 7.98895 25.8635 6.49068 25.8635C4.99241 25.8635 3.77213 27.0838 3.77213 28.5821C3.77213 30.0803 4.99241 31.3006 6.49068 31.3006C7.0599 31.3006 7.58941 31.1237 8.02746 30.8228L11.1443 33.9397H21.6286V39.7559H14.9544C14.7197 38.4947 13.6114 37.5356 12.2816 37.5356C10.7821 37.5356 9.56303 38.7559 9.56303 40.2541C9.56303 41.7524 10.7833 42.9727 12.2816 42.9727C13.6102 42.9727 14.7185 42.0147 14.9544 40.7523H21.6286V47.5012H5.89137C5.6567 46.24 4.54834 45.2808 3.21855 45.2808C1.71908 45.2808 0.5 46.5011 0.5 47.9994C0.5 49.4977 1.72028 50.7179 3.21855 50.7179C4.54714 50.7179 5.6555 49.76 5.89137 48.4976H21.6238V55.2465H13.2046C12.9699 53.9841 11.8616 53.0261 10.5318 53.0261C9.03232 53.0261 7.81325 54.2464 7.81325 55.7447C7.81325 57.243 9.03353 58.4632 10.5318 58.4632C11.8604 58.4632 12.9687 57.5053 13.2046 56.2429H21.6238V62.0591H12.3129L9.19599 65.176C8.75914 64.8751 8.22963 64.6982 7.65921 64.6982C6.15973 64.6982 4.94066 65.9185 4.94066 67.4167C4.94066 68.915 6.16094 70.1353 7.65921 70.1353C9.15748 70.1353 10.3778 68.915 10.3778 67.4167C10.3778 66.8475 10.2009 66.318 9.89999 65.88L12.7256 63.0543H21.6226V65.0195C21.6226 66.241 22.098 67.3903 22.962 68.2543L27.7445 73.0368C28.6085 73.9008 29.7566 74.3762 30.9793 74.3762H32.9445V84.4477L30.1188 87.2734C29.682 86.9725 29.1525 86.7956 28.5821 86.7956C27.0826 86.7956 25.8635 88.0159 25.8635 89.5141C25.8635 91.0124 27.0838 92.2327 28.5821 92.2327C30.0803 92.2327 31.3006 91.0124 31.3006 89.5141C31.3006 88.9449 31.1237 88.4154 30.8228 87.9774L33.9397 84.8605V74.3762H39.7559V81.0504C38.4947 81.2851 37.5356 82.3934 37.5356 83.7232C37.5356 85.2227 38.7559 86.4418 40.2541 86.4418C41.7524 86.4418 42.9727 85.2215 42.9727 83.7232C42.9727 82.3946 42.0147 81.2863 40.7523 81.0504V74.3762H47.5012V90.1086C46.24 90.3433 45.2808 91.4517 45.2808 92.7815C45.2808 94.2809 46.5011 95.5 47.9994 95.5C49.4977 95.5 50.7179 94.2797 50.7179 92.7815C50.7179 91.4529 49.76 90.3445 48.4976 90.1086V74.3762H55.2465V82.7954C53.9841 83.0301 53.0261 84.1384 53.0261 85.4682C53.0261 86.9677 54.2464 88.1868 55.7447 88.1868C57.243 88.1868 58.4632 86.9665 58.4632 85.4682C58.4632 84.1396 57.5053 83.0313 56.2429 82.7954V74.3762H62.0591V83.6871L65.176 86.804C64.8751 87.2421 64.6982 87.7704 64.6982 88.3408C64.6982 89.8403 65.9185 91.0593 67.4167 91.0593C68.915 91.0593 70.1353 89.8391 70.1353 88.3408C70.1353 86.8425 68.915 85.6222 67.4167 85.6222C66.8475 85.6222 66.318 85.7991 65.88 86.1L63.0543 83.2744V74.3774H65.0195C66.241 74.3774 67.3903 73.902 68.2543 73.038L73.0368 68.2555C73.9008 67.3915 74.3762 66.2434 74.3762 65.0207V63.0555H84.4477L87.2734 65.8812C86.9725 66.318 86.7956 66.8475 86.7956 67.418C86.7956 68.9174 88.0159 70.1365 89.5141 70.1365C91.0124 70.1365 92.2327 68.9162 92.2327 67.418C92.2327 65.9197 91.0124 64.6994 89.5141 64.6994C88.9449 64.6994 88.4154 64.8763 87.9774 65.1772L84.8605 62.0603H74.3762V56.2441H81.0504C81.2851 57.5053 82.3934 58.4644 83.7232 58.4644C85.2227 58.4644 86.4418 57.2442 86.4418 55.7459C86.4418 54.2476 85.2215 53.0273 83.7232 53.0273C82.3946 53.0273 81.2863 53.9853 81.0504 55.2477H74.3762V48.4988H90.1086C90.3433 49.76 91.4517 50.7192 92.7815 50.7192C94.2809 50.7192 95.5 49.4989 95.5 48.0006C95.5 46.5023 94.2797 45.2821 92.7815 45.2821L92.7863 45.2833ZM85.4742 38.5356C86.4237 38.5356 87.1963 39.3082 87.1963 40.2577C87.1963 41.2072 86.4237 41.9798 85.4742 41.9798C84.5247 41.9798 83.7521 41.2072 83.7521 40.2577C83.7521 39.3082 84.5247 38.5356 85.4742 38.5356ZM88.3456 26.8611C89.2951 26.8611 90.0677 27.6337 90.0677 28.5833C90.0677 29.5328 89.2951 30.3054 88.3456 30.3054C87.3961 30.3054 86.6235 29.5328 86.6235 28.5833C86.6235 27.6337 87.3961 26.8611 88.3456 26.8611ZM67.4228 4.76375C68.3723 4.76375 69.1449 5.53636 69.1449 6.48586C69.1449 7.43537 68.3723 8.20797 67.4228 8.20797C66.4733 8.20797 65.7007 7.43537 65.7007 6.48586C65.7007 5.53636 66.4733 4.76375 67.4228 4.76375ZM54.0274 12.2768C54.0274 11.3273 54.8 10.5547 55.7495 10.5547C56.699 10.5547 57.4716 11.3273 57.4716 12.2768C57.4716 13.2263 56.699 13.9989 55.7495 13.9989C54.8 13.9989 54.0274 13.2263 54.0274 12.2768ZM46.2809 3.21855C46.2809 2.26904 47.0535 1.49644 48.003 1.49644C48.9525 1.49644 49.7251 2.26904 49.7251 3.21855C49.7251 4.16806 48.9525 4.94066 48.003 4.94066C47.0535 4.94066 46.2809 4.16806 46.2809 3.21855ZM38.5356 10.5318C38.5356 9.58229 39.3082 8.80969 40.2577 8.80969C41.2072 8.80969 41.9798 9.58229 41.9798 10.5318C41.9798 11.4813 41.2072 12.2539 40.2577 12.2539C39.3082 12.2539 38.5356 11.4813 38.5356 10.5318ZM28.5833 9.38132C27.6337 9.38132 26.8611 8.60871 26.8611 7.65921C26.8611 6.7097 27.6337 5.9371 28.5833 5.9371C29.5328 5.9371 30.3054 6.7097 30.3054 7.65921C30.3054 8.60871 29.5328 9.38132 28.5833 9.38132ZM6.48586 30.3054C5.53636 30.3054 4.76375 29.5328 4.76375 28.5833C4.76375 27.6337 5.53636 26.8611 6.48586 26.8611C7.43537 26.8611 8.20797 27.6337 8.20797 28.5833C8.20797 29.5328 7.43537 30.3054 6.48586 30.3054ZM12.2768 41.9786C11.3273 41.9786 10.5547 41.206 10.5547 40.2565C10.5547 39.307 11.3273 38.5344 12.2768 38.5344C13.2263 38.5344 13.9989 39.307 13.9989 40.2565C13.9989 41.206 13.2263 41.9786 12.2768 41.9786ZM3.21855 49.7239C2.26904 49.7239 1.49644 48.9513 1.49644 48.0018C1.49644 47.0523 2.26904 46.2797 3.21855 46.2797C4.16806 46.2797 4.94066 47.0523 4.94066 48.0018C4.94066 48.9513 4.16806 49.7239 3.21855 49.7239ZM10.5318 57.4704C9.58229 57.4704 8.80969 56.6978 8.80969 55.7483C8.80969 54.7988 9.58229 54.0262 10.5318 54.0262C11.4813 54.0262 12.2539 54.7988 12.2539 55.7483C12.2539 56.6978 11.4813 57.4704 10.5318 57.4704ZM7.65921 69.1437C6.7097 69.1437 5.9371 68.3711 5.9371 67.4216C5.9371 66.4721 6.7097 65.6995 7.65921 65.6995C8.60871 65.6995 9.38132 66.4721 9.38132 67.4216C9.38132 68.3711 8.60871 69.1437 7.65921 69.1437ZM28.5833 91.2411C27.6337 91.2411 26.8611 90.4685 26.8611 89.519C26.8611 88.5695 27.6337 87.7968 28.5833 87.7968C29.5328 87.7968 30.3054 88.5695 30.3054 89.519C30.3054 90.4685 29.5328 91.2411 28.5833 91.2411ZM41.9786 83.7292C41.9786 84.6788 41.206 85.4514 40.2565 85.4514C39.307 85.4514 38.5344 84.6788 38.5344 83.7292C38.5344 82.7797 39.307 82.0071 40.2565 82.0071C41.206 82.0071 41.9786 82.7797 41.9786 83.7292ZM49.7239 92.7863C49.7239 93.7358 48.9513 94.5084 48.0018 94.5084C47.0523 94.5084 46.2797 93.7358 46.2797 92.7863C46.2797 91.8368 47.0523 91.0642 48.0018 91.0642C48.9513 91.0642 49.7239 91.8368 49.7239 92.7863ZM57.4704 85.4742C57.4704 86.4237 56.6978 87.1963 55.7483 87.1963C54.7988 87.1963 54.0262 86.4237 54.0262 85.4742C54.0262 84.5247 54.7988 83.7521 55.7483 83.7521C56.6978 83.7521 57.4704 84.5247 57.4704 85.4742ZM67.4228 86.6247C68.3723 86.6247 69.1449 87.3973 69.1449 88.3468C69.1449 89.2963 68.3723 90.0689 67.4228 90.0689C66.4733 90.0689 65.7007 89.2963 65.7007 88.3468C65.7007 87.3973 66.4733 86.6247 67.4228 86.6247ZM89.5202 65.7007C90.4697 65.7007 91.2423 66.4733 91.2423 67.4228C91.2423 68.3723 90.4697 69.1449 89.5202 69.1449C88.5706 69.1449 87.798 68.3723 87.798 67.4228C87.798 66.4733 88.5706 65.7007 89.5202 65.7007ZM83.7292 54.0274C84.6788 54.0274 85.4514 54.8 85.4514 55.7495C85.4514 56.699 84.6788 57.4716 83.7292 57.4716C82.7797 57.4716 82.0071 56.699 82.0071 55.7495C82.0071 54.8 82.7797 54.0274 83.7292 54.0274ZM73.3846 65.0255C73.3846 65.9811 73.0127 66.8788 72.3364 67.5551L67.5539 72.3376C66.8788 73.0127 65.9799 73.3846 65.0243 73.3846H30.9805C30.025 73.3846 29.1272 73.0127 28.4509 72.3376L23.6684 67.5551C22.9933 66.88 22.6215 65.9811 22.6215 65.0255V30.9805C22.6215 30.025 22.9933 29.1272 23.6684 28.4509L28.4509 23.6684C29.126 22.9933 30.025 22.6203 30.9805 22.6203H65.0255C65.9811 22.6203 66.8788 22.9921 67.5551 23.6684L72.3376 28.4509C73.0127 29.126 73.3858 30.025 73.3858 30.9805V65.0255H73.3846ZM92.7863 49.7239C91.8368 49.7239 91.0642 48.9513 91.0642 48.0018C91.0642 47.0523 91.8368 46.2797 92.7863 46.2797C93.7358 46.2797 94.5084 47.0523 94.5084 48.0018C94.5084 48.9513 93.7358 49.7239 92.7863 49.7239Z" fill="#222222"/>
    <path d="M58.0758 35.5945C57.6053 35.124 56.9807 34.8652 56.3164 34.8652H39.6898C39.0255 34.8652 38.3997 35.124 37.9304 35.5945L35.5945 37.9304C35.124 38.4009 34.8652 39.0255 34.8652 39.6898V56.3164C34.8652 56.9807 35.124 57.6065 35.5945 58.0758L37.9304 60.4117C38.4009 60.8822 39.0255 61.1409 39.6898 61.1409H56.3164C56.9807 61.1409 57.6065 60.8822 58.0758 60.4117L60.4117 58.0758C60.8822 57.6053 61.1409 56.9807 61.1409 56.3164V39.6898C61.1409 39.0255 60.8822 38.3997 60.4117 37.9304L58.0758 35.5945ZM60.1433 56.3164C60.1433 56.7147 59.9881 57.089 59.7064 57.3706L57.3706 59.7064C57.089 59.9881 56.7147 60.1433 56.3164 60.1433H39.6898C39.2915 60.1433 38.9172 59.9881 38.6356 59.7064L36.2997 57.3706C36.0181 57.089 35.8629 56.7147 35.8629 56.3164V39.6898C35.8629 39.2915 36.0181 38.9172 36.2997 38.6356L38.6356 36.2997C38.9172 36.0181 39.2915 35.8629 39.6898 35.8629H56.3164C56.7147 35.8629 57.089 36.0181 57.3706 36.2997L59.7064 38.6356C59.9881 38.9172 60.1433 39.2915 60.1433 39.6898V56.3164Z" fill="#222222"/>
    <mask id="path-3-inside-1_49_593" fill="white">
        <path d="M66.1437 25.079C65.8452 24.7806 65.4481 24.6157 65.0245 24.6157H30.9807C30.5583 24.6157 30.1611 24.7806 29.8615 25.079L25.079 29.8615C24.7806 30.1599 24.6157 30.5583 24.6157 30.9807V65.0257C24.6157 65.4481 24.7806 65.8452 25.079 66.1449L29.8615 70.9273C30.1599 71.2258 30.5571 71.3907 30.9807 71.3907H65.0257C65.4481 71.3907 65.8452 71.2258 66.1449 70.9273L70.9273 66.1449C71.2258 65.8465 71.3907 65.4493 71.3907 65.0257V30.9807C71.3907 30.5583 71.2258 30.1611 70.9273 29.8615L66.1449 25.079H66.1437ZM70.393 65.0257C70.393 65.1822 70.3328 65.329 70.2221 65.4397L65.4397 70.2221C65.329 70.3328 65.1822 70.393 65.0257 70.393H30.9807C30.8242 70.393 30.6774 70.3316 30.5667 70.2221L25.7843 65.4397C25.6735 65.329 25.6134 65.1822 25.6134 65.0257V30.9807C25.6134 30.8242 25.6747 30.6774 25.7843 30.5667L30.5667 25.7843C30.6774 25.6735 30.8242 25.6134 30.9807 25.6134H65.0257C65.1822 25.6134 65.329 25.6747 65.4397 25.7843L70.2221 30.5667C70.3328 30.6774 70.393 30.8242 70.393 30.9807V65.0257Z"/>
    </mask>
    <path d="M66.1437 25.079C65.8452 24.7806 65.4481 24.6157 65.0245 24.6157H30.9807C30.5583 24.6157 30.1611 24.7806 29.8615 25.079L25.079 29.8615C24.7806 30.1599 24.6157 30.5583 24.6157 30.9807V65.0257C24.6157 65.4481 24.7806 65.8452 25.079 66.1449L29.8615 70.9273C30.1599 71.2258 30.5571 71.3907 30.9807 71.3907H65.0257C65.4481 71.3907 65.8452 71.2258 66.1449 70.9273L70.9273 66.1449C71.2258 65.8465 71.3907 65.4493 71.3907 65.0257V30.9807C71.3907 30.5583 71.2258 30.1611 70.9273 29.8615L66.1449 25.079H66.1437ZM70.393 65.0257C70.393 65.1822 70.3328 65.329 70.2221 65.4397L65.4397 70.2221C65.329 70.3328 65.1822 70.393 65.0257 70.393H30.9807C30.8242 70.393 30.6774 70.3316 30.5667 70.2221L25.7843 65.4397C25.6735 65.329 25.6134 65.1822 25.6134 65.0257V30.9807C25.6134 30.8242 25.6747 30.6774 25.7843 30.5667L30.5667 25.7843C30.6774 25.6735 30.8242 25.6134 30.9807 25.6134H65.0257C65.1822 25.6134 65.329 25.6747 65.4397 25.7843L70.2221 30.5667C70.3328 30.6774 70.393 30.8242 70.393 30.9807V65.0257Z" fill="#222222"/>
    <path d="M66.1437 25.079L65.4366 25.7862L65.7295 26.079H66.1437V25.079ZM29.8615 25.079L29.1558 24.3705L29.1544 24.3719L29.8615 25.079ZM25.079 66.1449L24.3705 66.8506L24.3719 66.852L25.079 66.1449ZM66.1449 70.9273L66.8506 71.6359L66.852 71.6344L66.1449 70.9273ZM70.9273 29.8615L71.6359 29.1558L71.6344 29.1544L70.9273 29.8615ZM66.1449 25.079L66.852 24.3719L66.5591 24.079H66.1449V25.079ZM30.5667 70.2221L29.8596 70.9292L29.8635 70.9331L30.5667 70.2221ZM25.7843 65.4397L26.4914 64.7326L25.7843 65.4397ZM25.7843 30.5667L25.0771 29.8596L25.0733 29.8635L25.7843 30.5667ZM65.4397 25.7843L66.1468 25.0771L66.1429 25.0733L65.4397 25.7843ZM70.2221 30.5667L70.9292 29.8596L70.2221 30.5667ZM66.8508 24.3719C66.3649 23.886 65.7134 23.6157 65.0245 23.6157V25.6157C65.1828 25.6157 65.3256 25.6752 65.4366 25.7862L66.8508 24.3719ZM65.0245 23.6157H30.9807V25.6157H65.0245V23.6157ZM30.9807 23.6157C30.2922 23.6157 29.6418 23.8865 29.1558 24.3705L30.5672 25.7876C30.6805 25.6747 30.8243 25.6157 30.9807 25.6157V23.6157ZM29.1544 24.3719L24.3719 29.1544L25.7862 30.5686L30.5686 25.7862L29.1544 24.3719ZM24.3719 29.1544C23.8857 29.6406 23.6157 30.2934 23.6157 30.9807H25.6157C25.6157 30.8232 25.6755 30.6793 25.7862 30.5686L24.3719 29.1544ZM23.6157 30.9807V65.0257H25.6157V30.9807H23.6157ZM23.6157 65.0257C23.6157 65.7142 23.8865 66.3646 24.3705 66.8506L25.7876 65.4392C25.6747 65.3259 25.6157 65.1821 25.6157 65.0257H23.6157ZM24.3719 66.852L29.1544 71.6344L30.5686 70.2202L25.7862 65.4378L24.3719 66.852ZM29.1544 71.6344C29.6403 72.1204 30.2917 72.3907 30.9807 72.3907V70.3907C30.8224 70.3907 30.6796 70.3312 30.5686 70.2202L29.1544 71.6344ZM30.9807 72.3907H65.0257V70.3907H30.9807V72.3907ZM65.0257 72.3907C65.7142 72.3907 66.3646 72.1199 66.8506 71.6359L65.4392 70.2188C65.3259 70.3317 65.182 70.3907 65.0257 70.3907V72.3907ZM66.852 71.6344L71.6344 66.852L70.2202 65.4378L65.4378 70.2202L66.852 71.6344ZM71.6344 66.852C72.1204 66.3661 72.3907 65.7146 72.3907 65.0257H70.3907C70.3907 65.184 70.3312 65.3268 70.2202 65.4378L71.6344 66.852ZM72.3907 65.0257V30.9807H70.3907V65.0257H72.3907ZM72.3907 30.9807C72.3907 30.2922 72.1199 29.6418 71.6359 29.1558L70.2188 30.5672C70.3317 30.6805 70.3907 30.8243 70.3907 30.9807H72.3907ZM71.6344 29.1544L66.852 24.3719L65.4378 25.7862L70.2202 30.5686L71.6344 29.1544ZM66.1449 24.079H66.1437V26.079H66.1449V24.079ZM69.393 65.0257C69.393 64.9196 69.4363 64.8113 69.515 64.7326L70.9292 66.1468C71.2294 65.8467 71.393 65.4447 71.393 65.0257H69.393ZM69.515 64.7326L64.7326 69.515L66.1468 70.9292L70.9292 66.1468L69.515 64.7326ZM64.7326 69.515C64.8113 69.4363 64.9196 69.393 65.0257 69.393V71.393C65.4447 71.393 65.8467 71.2294 66.1468 70.9292L64.7326 69.515ZM65.0257 69.393H30.9807V71.393H65.0257V69.393ZM30.9807 69.393C31.0914 69.393 31.1962 69.4382 31.2699 69.5112L29.8635 70.9331C30.1586 71.225 30.557 71.393 30.9807 71.393V69.393ZM31.2738 69.515L26.4914 64.7326L25.0771 66.1468L29.8596 70.9292L31.2738 69.515ZM26.4914 64.7326C26.5701 64.8113 26.6134 64.9196 26.6134 65.0257H24.6134C24.6134 65.4447 24.777 65.8466 25.0771 66.1468L26.4914 64.7326ZM26.6134 65.0257V30.9807H24.6134V65.0257H26.6134ZM26.6134 30.9807C26.6134 31.0914 26.5681 31.1962 26.4952 31.2699L25.0733 29.8635C24.7813 30.1586 24.6134 30.557 24.6134 30.9807H26.6134ZM26.4914 31.2738L31.2738 26.4914L29.8596 25.0771L25.0771 29.8596L26.4914 31.2738ZM31.2738 26.4914C31.1951 26.5701 31.0867 26.6134 30.9807 26.6134V24.6134C30.5617 24.6134 30.1597 24.777 29.8596 25.0771L31.2738 26.4914ZM30.9807 26.6134H65.0257V24.6134H30.9807V26.6134ZM65.0257 26.6134C64.915 26.6134 64.8102 26.5681 64.7365 26.4952L66.1429 25.0733C65.8478 24.7813 65.4494 24.6134 65.0257 24.6134V26.6134ZM64.7326 26.4914L69.515 31.2738L70.9292 29.8596L66.1468 25.0771L64.7326 26.4914ZM69.515 31.2738C69.4363 31.1951 69.393 31.0867 69.393 30.9807H71.393C71.393 30.5617 71.2294 30.1597 70.9292 29.8596L69.515 31.2738ZM69.393 30.9807V65.0257H71.393V30.9807H69.393Z" fill="#222222" mask="url(#path-3-inside-1_49_593)"/>
    <path d="M44.2027 42.7852L40.5659 53.2201H42.8585L43.6443 50.6893H47.3328L48.1162 53.2201H50.416L46.7792 42.7852H44.2051H44.2027ZM44.1509 49.055L45.4687 44.8105H45.512L46.8262 49.055H44.1509Z" fill="#222222"/>
    <path d="M53.6691 42.7852H51.4849V53.2201H53.6691V42.7852Z" fill="#222222"/>
</svg>