<svg xmlns="http://www.w3.org/2000/svg" width="104" height="76" viewBox="0 0 104 76" fill="none">
    <path d="M54.4104 55.9638C53.9397 55.9638 53.5605 55.5886 53.5605 55.1229L53.7566 22.4298C53.7566 21.964 54.1358 21.5889 54.6065 21.5889H67.5105C67.772 21.5889 68.0335 21.7183 68.1904 21.9253L71.0405 25.6641H95.7504C96.2211 25.6641 96.6003 26.0394 96.6003 26.5051V31.7448C96.6003 32.2105 96.2211 32.5857 95.7504 32.5857C95.2797 32.5857 94.9006 32.2105 94.9006 31.7448V27.3461H70.6221C70.3607 27.3461 70.0992 27.2167 69.9423 27.0097L67.0922 23.2707H55.4563L55.2602 55.1229C55.2602 55.5886 54.881 55.9638 54.4104 55.9638Z" fill="#222222"/>
    <path d="M27.7266 17.061H0.846386C0.375721 17.061 -0.00341797 16.6858 -0.00341797 16.22V1.67829C-0.00341797 1.21254 0.375721 0.837402 0.846386 0.837402H27.7266C28.1972 0.837402 28.5764 1.21254 28.5764 1.67829V16.22C28.5764 16.6858 28.1972 17.061 27.7266 17.061ZM1.69619 15.3791H26.8768V2.51926H1.69619V15.3791Z" fill="#222222"/>
    <path d="M36.5646 9.78977H14.2473C13.7766 9.78977 13.3975 9.41455 13.3975 8.9488C13.3975 8.48305 13.7766 8.10791 14.2473 8.10791H36.5646C37.0353 8.10791 37.4144 8.48305 37.4144 8.9488C37.4144 9.41455 37.0353 9.78977 36.5646 9.78977Z" fill="#222222"/>
    <path d="M27.7266 46.1572H0.846386C0.375721 46.1572 -0.00341797 45.782 -0.00341797 45.3162V30.7745C-0.00341797 30.3087 0.375721 29.9336 0.846386 29.9336H27.7266C28.1972 29.9336 28.5764 30.3087 28.5764 30.7745V45.3162C28.5764 45.782 28.1972 46.1572 27.7266 46.1572ZM1.69619 44.4753H26.8768V31.6155H1.69619V44.4753Z" fill="#222222"/>
    <path d="M41.8987 38.8864H14.2341C13.7635 38.8864 13.3843 38.5112 13.3843 38.0455C13.3843 37.5797 13.7635 37.2046 14.2341 37.2046H41.8987C42.3694 37.2046 42.7486 37.5797 42.7486 38.0455C42.7486 38.5112 42.3694 38.8864 41.8987 38.8864Z" fill="#222222"/>
    <path d="M27.7266 75.1626H0.846386C0.375721 75.1626 -0.00341797 74.7874 -0.00341797 74.3217V59.7799C-0.00341797 59.3142 0.375721 58.939 0.846386 58.939H27.7266C28.1972 58.939 28.5764 59.3142 28.5764 59.7799V74.3217C28.5764 74.7874 28.1972 75.1626 27.7266 75.1626ZM1.69619 73.4807H26.8768V60.6208H1.69619V73.4807Z" fill="#222222"/>
    <path d="M36.5646 67.8918H14.2473C13.7766 67.8918 13.3975 67.5167 13.3975 67.0509C13.3975 66.5852 13.7766 66.21 14.2473 66.21H36.5646C37.0353 66.21 37.4144 66.5852 37.4144 67.0509C37.4144 67.5167 37.0353 67.8918 36.5646 67.8918Z" fill="#222222"/>
    <path d="M46.6574 74.5811H35.989C35.5183 74.5811 35.1392 74.2059 35.1392 73.7401V2.2604C35.1392 1.79465 35.5183 1.41943 35.989 1.41943H46.6574C47.128 1.41943 47.5072 1.79465 47.5072 2.2604V27.9931H54.9071C55.3777 27.9931 55.7569 28.3683 55.7569 28.834C55.7569 29.2998 55.3777 29.675 54.9071 29.675H46.6574C46.1867 29.675 45.8076 29.2998 45.8076 28.834V3.10137H36.8388V72.8991H45.8076V47.1665C45.8076 46.7008 46.1867 46.3255 46.6574 46.3255H54.9071C55.3777 46.3255 55.7569 46.7008 55.7569 47.1665C55.7569 47.6323 55.3777 48.0074 54.9071 48.0074H47.5072V73.7401C47.5072 74.2059 47.128 74.5811 46.6574 74.5811Z" fill="#222222"/>
    <path d="M11.9979 11.0708H10.3506V12.7268H11.9979V11.0708Z" fill="#222222"/>
    <path d="M8.71658 11.0708H7.05615V12.7268H8.71658V11.0708Z" fill="#222222"/>
    <path d="M5.40857 11.0708H3.76123V12.7268H5.40857V11.0708Z" fill="#222222"/>
    <path d="M11.9979 5.1582H10.3506V6.80129H11.9979V5.1582Z" fill="#222222"/>
    <path d="M8.71658 5.1582H7.05615V6.80129H8.71658V5.1582Z" fill="#222222"/>
    <path d="M5.40857 5.1582H3.76123V6.80129H5.40857V5.1582Z" fill="#222222"/>
    <path d="M11.9979 40.1802H10.3506V41.8233H11.9979V40.1802Z" fill="#222222"/>
    <path d="M8.71658 40.1802H7.05615V41.8233H8.71658V40.1802Z" fill="#222222"/>
    <path d="M5.40857 40.1802H3.76123V41.8233H5.40857V40.1802Z" fill="#222222"/>
    <path d="M11.9979 34.2681H10.3506V35.8076H11.9979V34.2681Z" fill="#222222"/>
    <path d="M8.71658 34.2681H7.05615V35.8076H8.71658V34.2681Z" fill="#222222"/>
    <path d="M5.40857 34.2681H3.76123V35.8076H5.40857V34.2681Z" fill="#222222"/>
    <path d="M11.9979 69.2769H10.3506V70.9199H11.9979V69.2769Z" fill="#222222"/>
    <path d="M8.71658 69.2769H7.05615V70.9199H8.71658V69.2769Z" fill="#222222"/>
    <path d="M5.40857 69.2769H3.76123V70.9199H5.40857V69.2769Z" fill="#222222"/>
    <path d="M11.9979 63.2603H10.3506V64.9033H11.9979V63.2603Z" fill="#222222"/>
    <path d="M8.71658 63.2603H7.05615V64.9033H8.71658V63.2603Z" fill="#222222"/>
    <path d="M5.40857 63.2603H3.76123V64.9033H5.40857V63.2603Z" fill="#222222"/>
    <path d="M95.7635 55.4719H54.6196C54.345 55.4719 54.0966 55.3425 53.9397 55.1355C53.7828 54.9155 53.7305 54.6438 53.809 54.398L60.699 31.5116C60.8036 31.1493 61.1435 30.9165 61.5096 30.9165H102.654C102.928 30.9165 103.177 31.0458 103.333 31.2528C103.49 31.4598 103.543 31.7444 103.464 31.9903L96.5741 54.8767C96.4695 55.239 96.1296 55.4719 95.7635 55.4719ZM55.757 53.79H95.136L101.516 32.5854H62.1371L55.757 53.79Z" fill="#222222"/>
    <path d="M92.7439 39.7531H69.1584C68.6877 39.7531 68.3086 39.378 68.3086 38.9123C68.3086 38.4465 68.6877 38.0713 69.1584 38.0713H92.7439C93.2146 38.0713 93.5938 38.4465 93.5938 38.9123C93.5938 39.378 93.2146 39.7531 92.7439 39.7531Z" fill="#222222"/>
    <path d="M76.6361 45.1872H65.7585C65.2878 45.1872 64.9087 44.812 64.9087 44.3463C64.9087 43.8805 65.2878 43.5054 65.7585 43.5054H76.6361C77.1068 43.5054 77.4859 43.8805 77.4859 44.3463C77.4859 44.812 77.1068 45.1872 76.6361 45.1872Z" fill="#222222"/>
    <path d="M89.9326 45.1872H83.4348C82.9641 45.1872 82.585 44.812 82.585 44.3463C82.585 43.8805 82.9641 43.5054 83.4348 43.5054H89.9326C90.4032 43.5054 90.7824 43.8805 90.7824 44.3463C90.7824 44.812 90.4032 45.1872 89.9326 45.1872Z" fill="#222222"/>
    <path d="M88.6776 50.53H77.8C77.3294 50.53 76.9502 50.1548 76.9502 49.689C76.9502 49.2233 77.3294 48.8481 77.8 48.8481H88.6776C89.1483 48.8481 89.5274 49.2233 89.5274 49.689C89.5274 50.1548 89.1483 50.53 88.6776 50.53Z" fill="#222222"/>
    <path d="M71.0014 50.53H64.5036C64.0329 50.53 63.6538 50.1548 63.6538 49.689C63.6538 49.2233 64.0329 48.8481 64.5036 48.8481H71.0014C71.4721 48.8481 71.8512 49.2233 71.8512 49.689C71.8512 50.1548 71.4721 50.53 71.0014 50.53Z" fill="#222222"/>
</svg>