<svg xmlns="http://www.w3.org/2000/svg" width="91" height="84" viewBox="0 0 91 84" fill="none">
    <path d="M29.9894 72.7487H14.3209C6.65752 72.7487 0.41748 66.0935 0.41748 57.9219C0.41748 49.7502 6.65752 43.095 14.3209 43.095C15.2319 43.095 16.1315 43.2033 17.1107 43.432C18.0445 37.1257 22.5765 32.1915 28.4749 31.0843C28.9076 20.975 36.8443 12.8516 46.4776 12.8516C56.111 12.8516 64.4007 21.3722 64.4918 31.8906C68.5455 33.8884 71.7794 37.5349 73.4647 41.9637C79.3176 44.2624 82.6767 49.317 82.6767 55.8759C82.6767 63.4699 76.4822 72.6404 68.7733 72.6404H54.9154C54.5054 72.6404 54.1752 72.2914 54.1752 71.8581C54.1752 71.4249 54.5054 71.0759 54.9154 71.0759H68.7733C75.4574 71.0759 81.1964 62.7237 81.1964 55.8759C81.1964 49.8104 78.1675 45.3575 72.6562 43.3237C72.4512 43.2514 72.2804 43.083 72.2121 42.8663C70.6521 38.5097 67.4638 34.9474 63.4669 33.1182C63.1937 32.9978 63.0229 32.709 63.0229 32.3961V32.0832C63.0229 22.347 55.5986 14.4281 46.489 14.4281C37.3795 14.4281 30.0463 22.2146 29.9552 31.7703C29.9552 32.1554 29.6819 32.4923 29.3175 32.5405C23.533 33.3468 19.0807 38.257 18.4999 44.491C18.4772 44.7197 18.3633 44.9243 18.1811 45.0567C17.9989 45.189 17.7712 45.2251 17.5662 45.165C16.4047 44.828 15.3799 44.6595 14.3551 44.6595C7.51154 44.6595 1.93194 50.6047 1.93194 57.9219C1.93194 65.239 7.50015 71.1842 14.3551 71.1842H30.0235C30.4334 71.1842 30.7637 71.5332 30.7637 71.9665C30.7637 72.3997 30.4334 72.7487 30.0235 72.7487H29.9894Z" fill="#222222"/>
    <path d="M52.0915 83.0383H32.6996C31.1282 83.0383 29.7845 81.5942 29.6479 79.7528L29.5454 62.6514C29.5454 62.4468 29.6251 62.2422 29.7618 62.0978C29.8984 61.9534 30.092 61.8691 30.2856 61.8691H54.3917C54.8016 61.8691 55.1319 62.2182 55.1319 62.6514V79.4881C55.1319 81.4497 53.7654 83.0504 52.0802 83.0504L52.0915 83.0383ZM31.0485 63.4216L31.1396 79.6806C31.2079 80.6434 31.9139 81.4738 32.711 81.4738H52.1029C52.9683 81.4738 53.6743 80.5832 53.6743 79.476V63.4216H31.0599H31.0485Z" fill="#222222"/>
    <path d="M49.9851 63.4216H34.7152C34.3053 63.4216 33.9751 63.0726 33.9751 62.6393V58.3429C33.9751 53.5049 37.8125 49.4131 42.3445 49.4131C46.8765 49.4131 50.7139 53.5049 50.7139 58.3429V62.6393C50.7139 63.0726 50.3837 63.4216 49.9737 63.4216H49.9851ZM35.4554 61.8571H49.245V58.3429C49.245 54.3473 46.0908 50.9776 42.3559 50.9776C38.621 50.9776 35.4668 54.3473 35.4668 58.3429V61.8571H35.4554Z" fill="#222222"/>
    <path d="M45.9651 59.7756H38.8368C38.4269 59.7756 38.0967 59.4266 38.0967 58.9933V57.5973C38.0967 55.082 40.0438 52.9639 42.3554 52.9639C44.6669 52.9639 46.7166 55.082 46.7166 57.5973V58.9933C46.7166 59.4266 46.3864 59.7756 45.9764 59.7756H45.9651ZM39.577 58.211H45.2249V57.5973C45.2249 55.9365 43.904 54.5284 42.344 54.5284C40.8637 54.5284 39.5656 55.9605 39.5656 57.5973V58.211H39.577Z" fill="#222222"/>
    <path d="M54.4033 68.669H30.0922C29.6823 68.669 29.3521 68.32 29.3521 67.8868C29.3521 67.4535 29.6823 67.1045 30.0922 67.1045H54.4033C54.8132 67.1045 55.1435 67.4535 55.1435 67.8868C55.1435 68.32 54.8132 68.669 54.4033 68.669Z" fill="#222222"/>
    <path d="M42.3442 79.9216C41.9343 79.9216 41.6041 79.5726 41.6041 79.1393V73.3867H38.9281C38.5182 73.3867 38.188 73.0377 38.188 72.6044C38.188 72.1712 38.5182 71.8222 38.9281 71.8222H41.6041C41.6155 71.4009 41.9457 71.064 42.3442 71.064C42.7428 71.064 43.073 71.4009 43.0844 71.8222H45.7603C46.1702 71.8222 46.5005 72.1712 46.5005 72.6044C46.5005 73.0377 46.1702 73.3867 45.7603 73.3867H43.0844V79.1393C43.0844 79.5726 42.7541 79.9216 42.3442 79.9216Z" fill="#222222"/>
    <path d="M78.8162 24.5977H62.4418C62.0319 24.5977 61.7017 24.2487 61.7017 23.8155C61.7017 23.3822 62.0319 23.0332 62.4418 23.0332H78.8162C79.2262 23.0332 79.5564 23.3822 79.5564 23.8155C79.5564 24.2487 79.2262 24.5977 78.8162 24.5977Z" fill="#222222"/>
    <path d="M63.5463 24.5975C63.3527 24.5975 63.1705 24.5253 63.0225 24.3689C62.7378 24.068 62.7264 23.5746 63.0225 23.2617L66.9396 19.0856C67.0762 18.9412 67.2698 18.8569 67.4634 18.8569H75.4001C75.81 18.8569 76.1402 19.2059 76.1402 19.6392C76.1402 20.0724 75.81 20.4215 75.4001 20.4215H67.7708L64.0701 24.3689C63.922 24.5253 63.7399 24.5975 63.5463 24.5975Z" fill="#222222"/>
    <path d="M80.6273 26.4268C79.2495 26.4268 78.0767 25.2354 78.0767 23.8152C78.0767 22.3229 79.2154 21.1074 80.6273 21.1074C82.0393 21.1074 83.1666 22.3229 83.1666 23.8152C83.1666 25.2233 82.0052 26.4268 80.6273 26.4268ZM80.6273 22.6719C80.0238 22.6719 79.557 23.1774 79.557 23.8152C79.557 24.3689 80.058 24.8623 80.6273 24.8623C81.1967 24.8623 81.6863 24.3689 81.6863 23.8152C81.6863 23.1774 81.2195 22.6719 80.6273 22.6719Z" fill="#222222"/>
    <path d="M75.4002 28.8939H67.4636C67.2586 28.8939 67.065 28.8097 66.9284 28.6532L63.0113 24.3568C62.7266 24.0439 62.738 23.5504 63.034 23.2496C63.3301 22.9487 63.797 22.9607 64.0816 23.2736L67.7824 27.3294H75.4002C75.8102 27.3294 76.1404 27.6784 76.1404 28.1116C76.1404 28.5449 75.8102 28.8939 75.4002 28.8939Z" fill="#222222"/>
    <path d="M28.5884 31.6743C28.3948 31.6743 28.2126 31.6021 28.0646 31.4456L22.3484 25.356H11.4169C11.007 25.356 10.6768 25.007 10.6768 24.5738C10.6768 24.1405 11.007 23.7915 11.4169 23.7915H22.6558C22.8494 23.7915 23.043 23.8757 23.1796 24.0202L29.1122 30.3505C29.3969 30.6513 29.3969 31.1568 29.1122 31.4577C28.9642 31.6141 28.782 31.6863 28.5884 31.6863V31.6743Z" fill="#222222"/>
    <path d="M9.69813 27.2817C8.29754 27.2817 7.14746 26.0662 7.14746 24.5739C7.14746 23.0816 8.28615 21.854 9.69813 21.854C11.0304 21.854 12.1463 23.0936 12.1463 24.5739C12.1463 26.0541 11.019 27.2817 9.69813 27.2817ZM9.69813 23.4185C9.10601 23.4185 8.62776 23.924 8.62776 24.5739C8.62776 25.2237 9.09463 25.7172 9.69813 25.7172C10.2105 25.7172 10.666 25.1756 10.666 24.5739C10.666 23.9721 10.2105 23.4185 9.69813 23.4185Z" fill="#222222"/>
    <path d="M86.241 46.5855H78.1108C77.7008 46.5855 77.3706 46.2365 77.3706 45.8033C77.3706 45.37 77.7008 45.021 78.1108 45.021H86.241C86.651 45.021 86.9812 45.37 86.9812 45.8033C86.9812 46.2365 86.651 46.5855 86.241 46.5855Z" fill="#222222"/>
    <path d="M87.9492 48.5105C86.6169 48.5105 85.501 47.2709 85.501 45.8026C85.501 44.3344 86.6283 43.2031 87.9492 43.2031C89.3498 43.2031 90.4998 44.3705 90.4998 45.8026C90.4998 47.2348 89.3611 48.5105 87.9492 48.5105ZM87.9492 44.7676C87.4481 44.7676 86.9813 45.2731 86.9813 45.8026C86.9813 46.4766 87.4937 46.9459 87.9492 46.9459C88.5527 46.9459 89.0195 46.4405 89.0195 45.8026C89.0195 45.237 88.5299 44.7676 87.9492 44.7676Z" fill="#222222"/>
    <path d="M35.3185 18.7003C35.125 18.7003 34.9428 18.6281 34.7947 18.4716L29.9781 13.4291C29.8414 13.2846 29.7617 13.08 29.7617 12.8755V10.5166C29.7617 10.0834 30.0919 9.73438 30.5019 9.73438C30.9118 9.73438 31.242 10.0834 31.242 10.5166V12.5505L35.8423 17.3644C36.127 17.6653 36.1384 18.1587 35.8423 18.4716C35.6943 18.6281 35.5121 18.7003 35.3185 18.7003Z" fill="#222222"/>
    <path d="M20.8573 36.0785C20.7093 36.0785 20.5727 36.0304 20.436 35.9461L15.05 32.0348L13.1256 32.3236C12.7271 32.3838 12.3513 32.0829 12.2944 31.6617C12.2374 31.2285 12.5221 30.8434 12.9206 30.7832L15.1297 30.4583C15.3119 30.4221 15.4941 30.4823 15.6535 30.5906L21.2787 34.6704C21.6203 34.9111 21.7 35.4045 21.4722 35.7536C21.3242 35.9702 21.0965 36.0905 20.8573 36.0905V36.0785Z" fill="#222222"/>
    <path d="M32.7103 16.0169C32.5168 16.0169 32.3346 15.9447 32.1865 15.7882C31.9019 15.4874 31.8905 14.9939 32.1865 14.681L35.8873 10.7336V5.79935C35.8873 5.3661 36.2175 5.01709 36.6275 5.01709C37.0374 5.01709 37.3676 5.3661 37.3676 5.79935V11.0586C37.3676 11.2631 37.2879 11.4677 37.1513 11.6122L33.2341 15.7882C33.0861 15.9447 32.9039 16.0169 32.7103 16.0169Z" fill="#222222"/>
    <path d="M9.69821 39.4965C9.34522 39.4965 9.02638 39.2197 8.96945 38.8466C8.90113 38.4254 9.17441 38.0162 9.58434 37.944L14.2074 37.1497L17.2477 32.6969C17.4869 32.3478 17.9537 32.2636 18.284 32.5163C18.6142 32.7691 18.6939 33.2625 18.4548 33.6115L15.2323 38.3291C15.1184 38.4976 14.9476 38.6059 14.754 38.642L9.83485 39.4965C9.83485 39.4965 9.75515 39.4965 9.7096 39.4965H9.69821Z" fill="#222222"/>
    <path d="M30.5018 11.2994C29.0443 11.2994 27.9512 10.1801 27.9512 8.68781C27.9512 7.19549 29.0899 5.97998 30.5018 5.97998C31.9138 5.97998 32.95 7.17142 32.95 8.68781C32.95 10.2042 31.9252 11.2994 30.5018 11.2994ZM30.5018 7.5445C29.8983 7.5445 29.4315 8.04996 29.4315 8.68781C29.4315 9.32565 29.8756 9.73484 30.5018 9.73484C31.094 9.73484 31.4697 9.33769 31.4697 8.68781C31.4697 8.12217 31.1395 7.5445 30.5018 7.5445Z" fill="#222222"/>
    <path d="M11.2347 34.5142C10.0277 34.5142 9.01423 33.6237 8.7751 32.348C8.61568 30.8557 9.51525 29.5679 10.8703 29.2791C11.0069 29.243 11.1664 29.231 11.3372 29.231C12.5442 29.231 13.6259 30.2298 13.7626 31.4574C13.8878 32.1554 13.7398 32.9136 13.3299 33.5033C12.9427 34.0569 12.362 34.4059 11.6902 34.4781C11.5877 34.5022 11.4055 34.5263 11.2461 34.5263L11.2347 34.5142ZM11.3258 30.7834C11.3258 30.7834 11.2233 30.7834 11.1664 30.8075C10.4718 30.9519 10.1757 31.5777 10.2212 32.1073C10.3123 32.5887 10.7109 32.9497 11.2233 32.9497C11.303 32.9497 11.3713 32.9497 11.451 32.9256C11.7699 32.8895 11.9748 32.7692 12.1229 32.5646C12.2823 32.3359 12.3392 32.023 12.2823 31.6861C12.2253 31.1926 11.7585 30.7834 11.3258 30.7834Z" fill="#222222"/>
    <path d="M36.6161 6.59379C35.1586 6.59379 34.0654 5.47456 34.0654 3.98224C34.0654 2.48993 35.2041 1.27441 36.6161 1.27441C38.0281 1.27441 39.1668 2.48993 39.1668 3.98224C39.1668 5.47456 38.0736 6.59379 36.6161 6.59379ZM36.6161 2.8269C36.0126 2.8269 35.5457 3.33236 35.5457 3.97021C35.5457 4.65619 36.0809 5.01723 36.6161 5.01723C37.2424 5.01723 37.6865 4.58398 37.6865 3.97021C37.6865 3.35643 37.2196 2.8269 36.6161 2.8269Z" fill="#222222"/>
    <path d="M7.9556 41.6871C6.77136 41.6871 5.72376 40.7845 5.46186 39.5329C5.30244 37.9082 6.24756 36.5843 7.61399 36.4399C7.70508 36.4158 7.87589 36.4038 8.03531 36.4038C9.21955 36.4038 10.2671 37.3064 10.529 38.558C10.6885 40.0624 9.78889 41.3501 8.44524 41.6389C8.27443 41.675 8.11501 41.6871 7.9556 41.6871ZM8.03531 37.9683C7.96698 37.9683 7.89866 37.9683 7.84173 37.9924C7.14712 38.0766 6.87384 38.7025 6.93077 39.2922C7.04464 39.7856 7.59122 40.2309 8.16056 40.1105C8.7413 39.9781 9.13984 39.4245 9.07152 38.8108C8.96903 38.3655 8.52494 37.9683 8.03531 37.9683Z" fill="#222222"/>
    <path d="M57.0106 18.1707C56.8171 18.1707 56.6349 18.0985 56.4868 17.942C56.2022 17.6411 56.1908 17.1477 56.4868 16.8348L60.8936 12.1292V10.2036C60.8936 9.7704 61.2238 9.42139 61.6337 9.42139C62.0437 9.42139 62.3739 9.7704 62.3739 10.2036V12.4542C62.3739 12.6587 62.2942 12.8633 62.1575 13.0078L57.5344 17.942C57.3864 18.0985 57.2042 18.1707 57.0106 18.1707Z" fill="#222222"/>
    <path d="M59.4243 15.7041C59.2308 15.7041 59.0486 15.6319 58.9005 15.4754L54.9834 11.2993C54.8468 11.1549 54.7671 10.9503 54.7671 10.7457V5.49857C54.7671 5.06532 55.0973 4.71631 55.5072 4.71631C55.9172 4.71631 56.2474 5.06532 56.2474 5.49857V10.4328L59.9481 14.3802C60.2328 14.6811 60.2328 15.1866 59.9481 15.4874C59.8001 15.6439 59.6179 15.7161 59.4243 15.7161V15.7041Z" fill="#222222"/>
    <path d="M61.6337 10.9864C60.3129 10.9864 59.1855 9.74679 59.1855 8.26651C59.1855 6.88251 60.3242 5.66699 61.6337 5.66699C63.0116 5.66699 64.1844 6.85844 64.1844 8.26651C64.1844 9.75882 63.0457 10.9864 61.6337 10.9864ZM61.6337 7.23152C61.1327 7.23152 60.6658 7.73698 60.6658 8.26651C60.6658 8.88028 61.1213 9.42185 61.6337 9.42185C62.2259 9.42185 62.7041 8.90435 62.7041 8.26651C62.7041 7.71291 62.2031 7.23152 61.6337 7.23152Z" fill="#222222"/>
    <path d="M55.5073 6.2686C54.1067 6.2686 53.0591 5.10122 53.0591 3.54873C53.0591 2.09252 54.1295 0.949219 55.5073 0.949219C56.8851 0.949219 58.0579 2.11659 58.0579 3.54873C58.0579 4.98087 56.9193 6.2686 55.5073 6.2686ZM55.5073 2.51374C54.881 2.51374 54.5394 3.05531 54.5394 3.54873C54.5394 4.1264 54.8696 4.70407 55.5073 4.70407C56.1108 4.70407 56.5776 4.19861 56.5776 3.54873C56.5776 2.9831 56.088 2.51374 55.5073 2.51374Z" fill="#222222"/>
</svg>