<svg xmlns="http://www.w3.org/2000/svg" width="56" height="44" viewBox="0 0 56 44" fill="none">
    <path d="M55.5402 9.43003H39.9131C39.6584 9.43003 39.4532 9.22486 39.4532 8.97018V0.459845C39.4532 0.205171 39.6584 0 39.9131 0H55.5402C55.7948 0 56 0.205171 56 0.459845V8.97018C56 9.22486 55.7948 9.43003 55.5402 9.43003ZM40.38 8.51038H55.0874V0.919648H40.38V8.51038Z" fill="white"/>
    <path d="M47.7371 5.17746H34.8619C34.6072 5.17746 34.4021 4.97229 34.4021 4.71761C34.4021 4.46294 34.6072 4.25781 34.8619 4.25781H47.7371C47.9918 4.25781 48.1969 4.46294 48.1969 4.71761C48.1969 4.97229 47.9918 5.17746 47.7371 5.17746Z" fill="white"/>
    <path d="M55.5402 26.4645H39.9131C39.6584 26.4645 39.4532 26.2593 39.4532 26.0046V17.4872C39.4532 17.2325 39.6584 17.0273 39.9131 17.0273H55.5402C55.7948 17.0273 56 17.2325 56 17.4872V26.0046C56 26.2593 55.7948 26.4645 55.5402 26.4645ZM40.38 25.5448H55.0874V17.947H40.38V25.5448Z" fill="white"/>
    <path d="M47.7372 22.2068H31.714C31.4593 22.2068 31.2542 22.0016 31.2542 21.7469C31.2542 21.4922 31.4593 21.2871 31.714 21.2871H47.7372C47.9919 21.2871 48.1971 21.4922 48.1971 21.7469C48.1971 22.0016 47.9919 22.2068 47.7372 22.2068Z" fill="white"/>
    <path d="M55.5402 43.443H39.9131C39.6584 43.443 39.4532 43.2378 39.4532 42.9831V34.4657C39.4532 34.211 39.6584 34.0059 39.9131 34.0059H55.5402C55.7948 34.0059 56 34.211 56 34.4657V42.9831C56 43.2378 55.7948 43.443 55.5402 43.443ZM40.38 42.5162H55.0874V34.9184H40.38V42.5162Z" fill="white"/>
    <path d="M47.7371 39.1853H34.8619C34.6072 39.1853 34.4021 38.9801 34.4021 38.7254C34.4021 38.4708 34.6072 38.2656 34.8619 38.2656H47.7371C47.9918 38.2656 48.1969 38.4708 48.1969 38.7254C48.1969 38.9801 47.9918 39.1853 47.7371 39.1853Z" fill="white"/>
    <path d="M35.1946 43.0967H29.0188C28.7641 43.0967 28.5589 42.8916 28.5589 42.6369V27.5404H24.2366C23.9819 27.5404 23.7767 27.3353 23.7767 27.0806C23.7767 26.8259 23.9819 26.6208 24.2366 26.6208H29.0188C29.2735 26.6208 29.4786 26.8259 29.4786 27.0806V42.1771H34.7348V1.25949H29.4786V16.3489C29.4786 16.6036 29.2735 16.8087 29.0188 16.8087H24.2366C23.9819 16.8087 23.7767 16.6036 23.7767 16.3489C23.7767 16.0942 23.9819 15.8891 24.2366 15.8891H28.5589V0.799646C28.5589 0.544972 28.7641 0.339844 29.0188 0.339844H35.1946C35.4493 0.339844 35.6544 0.544972 35.6544 0.799646V42.6369C35.6544 42.8916 35.4493 43.0967 35.1946 43.0967Z" fill="white"/>
    <path d="M12.5498 35.8882C5.51087 35.8882 0 33.6669 0 30.8301C0 29.8538 0.580087 28.9837 1.77564 28.1772C1.93127 28.0711 2.12936 28.0711 2.28499 28.1772C4.40727 29.5709 8.34057 30.4339 12.5427 30.4339C16.7448 30.4339 20.7347 29.5709 22.857 28.1772C23.0126 28.0782 23.2107 28.0782 23.3663 28.1772C24.5619 28.9837 25.1349 29.8538 25.1349 30.8301C25.1349 33.6669 19.6028 35.8882 12.5356 35.8882H12.5498ZM2.05154 29.1111C1.29459 29.677 0.919659 30.2429 0.919659 30.8301C0.919659 32.7897 5.6948 34.9685 12.5498 34.9685C19.4048 34.9685 24.2294 32.7897 24.2294 30.8301C24.2294 30.2429 23.8615 29.677 23.1046 29.1111C20.7913 30.4976 16.7943 31.3465 12.5568 31.3465C8.31935 31.3465 4.37191 30.4976 2.05862 29.1111H2.05154Z" fill="white"/>
    <path d="M12.5498 31.3452C5.39768 31.3452 0 29.1734 0 26.2871C0 25.3109 0.580087 24.4407 1.77564 23.6343C1.93127 23.5282 2.13644 23.5282 2.29207 23.6343C4.32239 25.0208 8.24861 25.8768 12.5427 25.8768C16.8368 25.8768 20.8196 25.0138 22.8499 23.6343C23.0056 23.5282 23.2107 23.5282 23.3663 23.6343C24.5619 24.4407 25.1349 25.3109 25.1349 26.2871C25.1349 29.1239 19.6028 31.3452 12.5356 31.3452H12.5498ZM2.04447 24.5751C1.28752 25.1411 0.919659 25.6999 0.919659 26.2942C0.919659 28.2962 5.59576 30.4326 12.5498 30.4326C19.5038 30.4326 24.2294 28.2962 24.2294 26.2942C24.2294 25.707 23.8615 25.1411 23.1117 24.5751C20.8479 25.9758 16.9429 26.8035 12.5568 26.8035C8.17079 26.8035 4.31531 25.9758 2.05154 24.5751H2.04447Z" fill="white"/>
    <path d="M12.5498 26.8042C5.39768 26.8042 0 24.6324 0 21.7461C0 20.7911 0.615458 19.8714 1.77564 19.0933C1.93127 18.9871 2.13644 18.9871 2.29207 19.0933C4.32239 20.4798 8.25568 21.3429 12.5427 21.3429C16.8297 21.3429 20.8196 20.4798 22.8499 19.0933C23.0056 18.9871 23.2107 18.9871 23.3663 19.0933C24.5265 19.8785 25.142 20.7911 25.142 21.7461C25.142 24.5829 19.6099 26.8042 12.5427 26.8042H12.5498ZM2.04447 20.0271C1.31582 20.5789 0.919659 21.1802 0.919659 21.7461C0.919659 23.7411 5.59576 25.8775 12.5498 25.8775C19.5038 25.8775 24.2294 23.7411 24.2294 21.7461C24.2294 21.1802 23.8332 20.5789 23.1117 20.0271C20.8479 21.4278 16.9429 22.2626 12.5568 22.2626C8.17079 22.2626 4.31531 21.4278 2.05862 20.0271H2.04447Z" fill="white"/>
    <path d="M12.5498 22.2633C5.39768 22.2633 0 20.0914 0 17.2051C0 16.2572 0.580086 15.38 1.71904 14.6089C1.87468 14.5028 2.07984 14.5028 2.23548 14.6089C4.26579 15.9954 8.21324 16.8585 12.5427 16.8585C16.8722 16.8585 20.8691 15.9954 22.8428 14.616C22.9985 14.5098 23.2036 14.5028 23.3663 14.616C24.5407 15.4154 25.1349 16.2855 25.1349 17.2122C25.1349 20.049 19.6028 22.2703 12.5356 22.2703L12.5498 22.2633ZM1.98787 15.5427C1.27337 16.0803 0.912577 16.6392 0.912577 17.2051C0.912577 19.2072 5.58868 21.3436 12.5427 21.3436C19.4967 21.3436 24.2223 19.2072 24.2223 17.2051C24.2223 16.6604 23.8474 16.1016 23.1046 15.5498C20.8904 16.9505 16.9853 17.7781 12.5498 17.7781C8.1142 17.7781 4.25165 16.9505 1.99495 15.5427H1.98787Z" fill="white"/>
    <path d="M12.5498 17.7784C5.51087 17.7784 0 15.5782 0 12.7768C0 9.97542 5.51087 7.71875 12.5498 7.71875C19.5887 7.71875 25.1491 9.94005 25.1491 12.7768C25.1491 15.6136 19.617 17.7784 12.5498 17.7784ZM12.5498 8.6384C5.59576 8.6384 0.919659 10.7819 0.919659 12.7768C0.919659 14.7718 5.59576 16.8587 12.5498 16.8587C19.5038 16.8587 24.2294 14.7081 24.2294 12.7768C24.2294 10.8456 19.5392 8.6384 12.5498 8.6384Z" fill="white"/>
    <path d="M8.77925 12.2676H7.82422V13.2297H8.77925V12.2676Z" fill="white"/>
    <path d="M10.6893 12.2676H9.73425V13.2297H10.6893V12.2676Z" fill="white"/>
    <path d="M12.5993 12.2676H11.6443V13.2297H12.5993V12.2676Z" fill="white"/>
    <path d="M14.5163 12.2676H13.5613V13.2297H14.5163V12.2676Z" fill="white"/>
    <path d="M16.4195 12.2676H15.4645V13.2297H16.4195V12.2676Z" fill="white"/>
    <path d="M50.0363 5.96289H49.0813V6.93206H50.0363V5.96289Z" fill="white"/>
    <path d="M51.9465 5.96289H50.9915V6.93206H51.9465V5.96289Z" fill="white"/>
    <path d="M53.8565 5.96289H52.9015V6.93206H53.8565V5.96289Z" fill="white"/>
    <path d="M50.0363 2.49805H49.0813V3.46014H50.0363V2.49805Z" fill="white"/>
    <path d="M51.9465 2.49805H50.9915V3.46014H51.9465V2.49805Z" fill="white"/>
    <path d="M53.8565 2.49805H52.9015V3.46014H53.8565V2.49805Z" fill="white"/>
    <path d="M50.0363 22.9922H49.0813V23.9543H50.0363V22.9922Z" fill="white"/>
    <path d="M51.9465 22.9922H50.9915V23.9543H51.9465V22.9922Z" fill="white"/>
    <path d="M53.8565 22.9922H52.9015V23.9543H53.8565V22.9922Z" fill="white"/>
    <path d="M50.0363 19.5312H49.0813V20.4368H50.0363V19.5312Z" fill="white"/>
    <path d="M51.9465 19.5312H50.9915V20.4368H51.9465V19.5312Z" fill="white"/>
    <path d="M53.8565 19.5312H52.9015V20.4368H53.8565V19.5312Z" fill="white"/>
    <path d="M50.0363 40.0254H49.0813V40.9875H50.0363V40.0254Z" fill="white"/>
    <path d="M51.9465 40.0254H50.9915V40.9875H51.9465V40.0254Z" fill="white"/>
    <path d="M53.8565 40.0254H52.9015V40.9875H53.8565V40.0254Z" fill="white"/>
    <path d="M50.0363 36.5098H49.0813V37.4719H50.0363V36.5098Z" fill="white"/>
    <path d="M51.9465 36.5098H50.9915V37.4719H51.9465V36.5098Z" fill="white"/>
    <path d="M53.8565 36.5098H52.9015V37.4719H53.8565V36.5098Z" fill="white"/>
</svg>