<svg xmlns="http://www.w3.org/2000/svg" width="49" height="49" viewBox="0 0 49 49" fill="none">
    <path d="M6.72645 29.8871H0.40038C0.178629 29.8871 0 29.7085 0 29.4867V0.40038C0 0.178629 0.178629 0 0.40038 0H38.9851C39.2068 0 39.3855 0.178629 39.3855 0.40038V9.5661C39.3855 9.78785 39.2068 9.96648 38.9851 9.96648C38.7633 9.96648 38.5847 9.78785 38.5847 9.5661V0.80077H0.800761V29.0864H6.72645C6.9482 29.0864 7.12683 29.265 7.12683 29.4867C7.12683 29.7085 6.9482 29.8871 6.72645 29.8871Z" fill="white"/>
    <path d="M33.5338 38.8442H6.67725C6.45549 38.8442 6.27686 38.6655 6.27686 38.4438V9.35742C6.27686 9.13567 6.45549 8.95703 6.67725 8.95703H45.2558C45.4775 8.95703 45.6562 9.13567 45.6562 9.35742V30.51C45.6562 30.7318 45.4775 30.9104 45.2558 30.9104C45.034 30.9104 44.8554 30.7318 44.8554 30.51V9.7578H7.07763V38.0434H33.5338C33.7555 38.0434 33.9342 38.222 33.9342 38.4438C33.9342 38.6655 33.7555 38.8442 33.5338 38.8442Z" fill="white"/>
    <path d="M44.997 16.1944H21.8117C21.7316 16.1944 21.6577 16.1697 21.5899 16.1266L18.7873 14.291H6.97899C6.75724 14.291 6.57861 14.1124 6.57861 13.8906C6.57861 13.6689 6.75724 13.4902 6.97899 13.4902H18.9043C18.9844 13.4902 19.0583 13.5149 19.126 13.558L21.9287 15.3936H44.997C45.2188 15.3936 45.3974 15.5722 45.3974 15.794C45.3974 16.0157 45.2188 16.1944 44.997 16.1944Z" fill="white"/>
    <path d="M41.6399 13.9278C40.9624 13.9278 40.371 13.3303 40.371 12.6528C40.371 11.9198 40.9377 11.3223 41.6399 11.3223C42.3422 11.3223 42.9581 11.9198 42.9581 12.6528C42.9581 13.3427 42.3545 13.9278 41.6399 13.9278ZM41.6399 12.1292C41.3936 12.1292 41.1718 12.3756 41.1718 12.6589C41.1718 12.8992 41.3997 13.1332 41.6399 13.1332C41.9171 13.1332 42.1574 12.9115 42.1574 12.6589C42.1574 12.3694 41.9294 12.1292 41.6399 12.1292Z" fill="white"/>
    <path d="M38.5786 13.9278C37.901 13.9278 37.3097 13.3303 37.3097 12.6528C37.3097 11.9321 37.8887 11.3223 38.5786 11.3223C39.3055 11.3223 39.8968 11.9198 39.8968 12.6528C39.8968 13.3427 39.2931 13.9278 38.5786 13.9278ZM38.5786 12.1292C38.3322 12.1292 38.1105 12.3756 38.1105 12.6589C38.1105 12.8992 38.3384 13.1332 38.5786 13.1332C38.8558 13.1332 39.096 12.9115 39.096 12.6589C39.096 12.3633 38.8681 12.1292 38.5786 12.1292Z" fill="white"/>
    <path d="M38.6773 7.03421H15.4858C15.4057 7.03421 15.3318 7.00957 15.264 6.96645L12.4614 5.13085H0.702392C0.48064 5.13085 0.302002 4.95221 0.302002 4.73046C0.302002 4.50871 0.48064 4.33008 0.702392 4.33008H12.5784C12.6585 4.33008 12.7324 4.35472 12.8001 4.39784L15.6028 6.23344H38.6773C38.899 6.23344 39.0777 6.41208 39.0777 6.63383C39.0777 6.85558 38.899 7.03421 38.6773 7.03421Z" fill="white"/>
    <path d="M35.3629 4.76769C34.6484 4.76769 34.0447 4.18251 34.0447 3.49262C34.0447 2.75961 34.6361 2.16211 35.3629 2.16211C36.0528 2.16211 36.6318 2.77193 36.6318 3.49262C36.6318 4.17019 36.0405 4.76769 35.3629 4.76769ZM35.3629 2.96288C35.0734 2.96288 34.8455 3.19695 34.8455 3.49262C34.8455 3.71437 35.0549 3.96076 35.3629 3.96076C35.597 3.96076 35.8311 3.72669 35.8311 3.49262C35.8311 3.17847 35.5847 2.96288 35.3629 2.96288Z" fill="white"/>
    <path d="M32.2588 4.76769C31.5812 4.76769 30.9899 4.17019 30.9899 3.49262C30.9899 2.77193 31.5689 2.16211 32.2588 2.16211C32.9856 2.16211 33.577 2.75961 33.577 3.49262C33.577 4.18251 32.9733 4.76769 32.2588 4.76769ZM32.2588 2.96288C32.037 2.96288 31.7906 3.17847 31.7906 3.49262C31.7906 3.73285 32.0247 3.96076 32.2588 3.96076C32.5606 3.96076 32.7762 3.71437 32.7762 3.49262C32.7762 3.19695 32.5483 2.96288 32.2588 2.96288Z" fill="white"/>
    <path d="M26.3943 21.4473H10.6439C10.4221 21.4473 10.2435 21.2686 10.2435 21.0469C10.2435 20.8251 10.4221 20.6465 10.6439 20.6465H26.3943C26.6161 20.6465 26.7947 20.8251 26.7947 21.0469C26.7947 21.2686 26.6161 21.4473 26.3943 21.4473Z" fill="white"/>
    <path d="M30.8791 21.4473H28.3351C28.1133 21.4473 27.9347 21.2686 27.9347 21.0469C27.9347 20.8251 28.1133 20.6465 28.3351 20.6465H30.8791C31.1008 20.6465 31.2794 20.8251 31.2794 21.0469C31.2794 21.2686 31.1008 21.4473 30.8791 21.4473Z" fill="white"/>
    <path d="M23.0311 23.9668H10.6439C10.4221 23.9668 10.2435 23.7881 10.2435 23.5664C10.2435 23.3446 10.4221 23.166 10.6439 23.166H23.0311C23.2529 23.166 23.4315 23.3446 23.4315 23.5664C23.4315 23.7881 23.2529 23.9668 23.0311 23.9668Z" fill="white"/>
    <path d="M30.8791 23.9668H28.3351C28.1133 23.9668 27.9347 23.7881 27.9347 23.5664C27.9347 23.3446 28.1133 23.166 28.3351 23.166H30.8791C31.1008 23.166 31.2794 23.3446 31.2794 23.5664C31.2794 23.7881 31.1008 23.9668 30.8791 23.9668Z" fill="white"/>
    <path d="M26.45 23.9668H24.6698C24.448 23.9668 24.2694 23.7881 24.2694 23.5664C24.2694 23.3446 24.448 23.166 24.6698 23.166H26.45C26.6717 23.166 26.8503 23.3446 26.8503 23.5664C26.8503 23.7881 26.6717 23.9668 26.45 23.9668Z" fill="white"/>
    <path d="M30.8788 26.2832H18.4977C18.276 26.2832 18.0974 26.1046 18.0974 25.8828C18.0974 25.6611 18.276 25.4824 18.4977 25.4824H30.8788C31.1006 25.4824 31.2792 25.6611 31.2792 25.8828C31.2792 26.1046 31.1006 26.2832 30.8788 26.2832Z" fill="white"/>
    <path d="M13.2004 26.2832H10.6503C10.4285 26.2832 10.2499 26.1046 10.2499 25.8828C10.2499 25.6611 10.4285 25.4824 10.6503 25.4824H13.2004C13.4221 25.4824 13.6008 25.6611 13.6008 25.8828C13.6008 26.1046 13.4221 26.2832 13.2004 26.2832Z" fill="white"/>
    <path d="M16.8655 26.2832H15.0792C14.8575 26.2832 14.6788 26.1046 14.6788 25.8828C14.6788 25.6611 14.8575 25.4824 15.0792 25.4824H16.8655C17.0873 25.4824 17.2659 25.6611 17.2659 25.8828C17.2659 26.1046 17.0873 26.2832 16.8655 26.2832Z" fill="white"/>
    <path d="M30.8791 28.8086H15.338C15.1163 28.8086 14.9376 28.6299 14.9376 28.4082C14.9376 28.1864 15.1163 28.0078 15.338 28.0078H30.8791C31.1008 28.0078 31.2795 28.1864 31.2795 28.4082C31.2795 28.6299 31.1008 28.8086 30.8791 28.8086Z" fill="white"/>
    <path d="M13.2004 28.8086H10.6503C10.4285 28.8086 10.2499 28.6299 10.2499 28.4082C10.2499 28.1864 10.4285 28.0078 10.6503 28.0078H13.2004C13.4221 28.0078 13.6008 28.1864 13.6008 28.4082C13.6008 28.6299 13.4221 28.8086 13.2004 28.8086Z" fill="white"/>
    <path d="M23.0311 31.2734H10.6439C10.4221 31.2734 10.2435 31.0948 10.2435 30.873C10.2435 30.6513 10.4221 30.4727 10.6439 30.4727H23.0311C23.2529 30.4727 23.4315 30.6513 23.4315 30.873C23.4315 31.0948 23.2529 31.2734 23.0311 31.2734Z" fill="white"/>
    <path d="M30.8791 31.2734H28.3351C28.1133 31.2734 27.9347 31.0948 27.9347 30.873C27.9347 30.6513 28.1133 30.4727 28.3351 30.4727H30.8791C31.1008 30.4727 31.2794 30.6513 31.2794 30.873C31.2794 31.0948 31.1008 31.2734 30.8791 31.2734Z" fill="white"/>
    <path d="M26.45 31.2734H24.6698C24.448 31.2734 24.2694 31.0948 24.2694 30.873C24.2694 30.6513 24.448 30.4727 24.6698 30.4727H26.45C26.6717 30.4727 26.8503 30.6513 26.8503 30.873C26.8503 31.0948 26.6717 31.2734 26.45 31.2734Z" fill="white"/>
    <path d="M10.1882 12.0234H8.91315C8.69139 12.0234 8.51276 11.8448 8.51276 11.623C8.51276 11.4013 8.69139 11.2227 8.91315 11.2227H10.1882C10.41 11.2227 10.5886 11.4013 10.5886 11.623C10.5886 11.8448 10.41 12.0234 10.1882 12.0234Z" fill="white"/>
    <path d="M12.3319 12.0234H11.0568C10.8351 12.0234 10.6564 11.8448 10.6564 11.623C10.6564 11.4013 10.8351 11.2227 11.0568 11.2227H12.3319C12.5536 11.2227 12.7323 11.4013 12.7323 11.623C12.7323 11.8448 12.5536 12.0234 12.3319 12.0234Z" fill="white"/>
    <path d="M14.4694 12.0234H13.1943C12.9726 12.0234 12.7939 11.8448 12.7939 11.623C12.7939 11.4013 12.9726 11.2227 13.1943 11.2227H14.4694C14.6912 11.2227 14.8698 11.4013 14.8698 11.623C14.8698 11.8448 14.6912 12.0234 14.4694 12.0234Z" fill="white"/>
    <path d="M3.86832 3.06835H2.59325C2.3715 3.06835 2.19287 2.88972 2.19287 2.66797C2.19287 2.44622 2.3715 2.26758 2.59325 2.26758H3.86832C4.09008 2.26758 4.26871 2.44622 4.26871 2.66797C4.26871 2.88972 4.09008 3.06835 3.86832 3.06835Z" fill="white"/>
    <path d="M6.012 3.06835H4.73693C4.51518 3.06835 4.33655 2.88972 4.33655 2.66797C4.33655 2.44622 4.51518 2.26758 4.73693 2.26758H6.012C6.23375 2.26758 6.41238 2.44622 6.41238 2.66797C6.41238 2.88972 6.23375 3.06835 6.012 3.06835Z" fill="white"/>
    <path d="M8.14951 3.06835H6.87444C6.65269 3.06835 6.47406 2.88972 6.47406 2.66797C6.47406 2.44622 6.65269 2.26758 6.87444 2.26758H8.14951C8.37127 2.26758 8.54989 2.44622 8.54989 2.66797C8.54989 2.88972 8.37127 3.06835 8.14951 3.06835Z" fill="white"/>
    <path d="M40.7714 48.1129C40.6728 48.1129 40.5804 48.0759 40.5003 48.0081C39.3793 46.9856 38.4245 46.1417 37.6053 45.4272C32.7822 41.1831 32.7329 41.0723 32.8068 33.699C32.813 32.7135 32.8253 31.5986 32.8253 30.3173C32.8253 30.2003 32.8807 30.0833 32.9731 30.0093C33.0655 29.9354 33.1887 29.8985 33.2996 29.9231C35.9483 30.4159 38.3999 29.9169 40.5435 28.4386C40.6913 28.3339 40.8946 28.3462 41.0301 28.4632C42.6501 29.8738 44.9908 30.342 48.2062 29.9169C48.3232 29.9046 48.4341 29.9354 48.5203 30.0155C48.6066 30.0894 48.6559 30.2003 48.6559 30.3173C48.6559 31.9127 48.6805 33.2494 48.699 34.3889C48.816 40.9306 48.7667 41.0353 43.7219 45.575C42.9519 46.2649 42.0649 47.0657 41.0362 48.0143C40.9623 48.0882 40.8638 48.119 40.7652 48.119L40.7714 48.1129ZM33.6261 30.7855C33.6261 31.8757 33.6137 32.8367 33.6076 33.699C33.5624 38.4174 35.0715 42.1235 38.135 44.8174C38.8865 45.4765 39.7612 46.2465 40.7652 47.1643C41.683 46.3204 42.4838 45.5997 43.186 44.9714C46.4014 42.0804 47.9721 38.555 47.8982 34.3951C47.8797 33.3664 47.8612 32.1653 47.8551 30.7608C44.7937 31.0996 42.4345 30.5945 40.7406 29.2578C38.6093 30.6438 36.207 31.1551 33.6199 30.7793L33.6261 30.7855Z" fill="white"/>
    <path d="M40.7716 44.7632C40.6607 44.7632 40.556 44.7201 40.4759 44.6338C40.3281 44.4675 40.3404 44.215 40.5005 44.0671C41.0426 43.5743 41.5231 43.1432 41.9542 42.7551C44.295 40.6567 45.4283 38.1271 45.3544 35.1663C45.3421 34.655 45.3298 34.0822 45.3175 33.4477C43.4819 33.4477 41.9542 33.1028 40.6545 32.3697C39.2748 33.072 37.7348 33.4354 36.1579 33.4477C36.121 34.7536 36.121 36.0533 36.121 37.3222C36.121 37.5439 35.9423 37.7226 35.7206 37.7226C35.4988 37.7226 35.3202 37.5439 35.3202 37.3222C35.3202 35.9239 35.3202 34.4825 35.3695 33.0288C35.3756 32.8071 35.5419 32.6531 35.7822 32.6408C37.4268 32.6962 39.053 32.3266 40.4759 31.5628C40.5991 31.4951 40.7531 31.5012 40.8701 31.5751C42.1637 32.3574 43.7406 32.7085 45.6932 32.6469C45.7979 32.6469 45.9026 32.6839 45.9827 32.7578C46.0628 32.8317 46.1059 32.9364 46.1059 33.0412C46.1182 33.8419 46.1306 34.538 46.149 35.154C46.2661 39.9278 46.2291 40.0017 42.484 43.3649C42.0528 43.753 41.5723 44.1842 41.0364 44.6708C40.9625 44.7385 40.864 44.7755 40.7654 44.7755L40.7716 44.7632Z" fill="white"/>
</svg>