<svg xmlns="http://www.w3.org/2000/svg" width="53" height="61" viewBox="0 0 53 61" fill="none">
    <path d="M26.2713 40.3053C20.7078 40.3053 16.1855 35.7374 16.1855 30.1283C16.1855 24.5192 20.7078 19.8906 26.2713 19.8906C31.8348 19.8906 36.4102 24.4812 36.4102 30.1283C36.4102 35.7755 31.8652 40.3053 26.2713 40.3053ZM26.2713 20.8711C21.255 20.8711 17.1736 25.0209 17.1736 30.1207C17.1736 35.2206 21.255 39.3097 26.2713 39.3097C31.2876 39.3097 35.4222 35.1902 35.4222 30.1207C35.4222 25.0513 31.318 20.8711 26.2713 20.8711Z" fill="white"/>
    <path d="M23.6112 55.4749C23.5276 55.4749 23.444 55.4521 23.3604 55.4065L6.01624 45.3284C5.78063 45.1915 5.69702 44.8875 5.83383 44.6519C5.97064 44.4163 6.27465 44.3327 6.51027 44.4695L23.862 54.5477C24.0976 54.6845 24.1736 54.9885 24.0368 55.2241C23.9456 55.3837 23.7784 55.4673 23.6112 55.4673V55.4749ZM28.9847 55.4749C28.8175 55.4749 28.6503 55.3837 28.559 55.2317C28.4222 54.9961 28.4982 54.6921 28.7339 54.5553L46.0324 44.4771C46.268 44.3403 46.572 44.4163 46.7088 44.6519C46.8456 44.8875 46.7696 45.1915 46.534 45.3284L29.2355 55.4065C29.1595 55.4521 29.0683 55.4749 28.9847 55.4749ZM49.0041 40.6921C48.7305 40.6921 48.5101 40.4717 48.5101 40.1981V19.981C48.5101 19.7074 48.7305 19.487 49.0041 19.487C49.2778 19.487 49.4982 19.7074 49.4982 19.981V40.1981C49.4982 40.4717 49.2778 40.6921 49.0041 40.6921ZM3.59931 40.6921C3.3257 40.6921 3.10529 40.4717 3.10529 40.1981V19.981C3.10529 19.7074 3.3257 19.487 3.59931 19.487C3.87293 19.487 4.09334 19.7074 4.09334 19.981V40.1981C4.09334 40.4717 3.87293 40.6921 3.59931 40.6921ZM46.2832 15.778C46.1996 15.778 46.116 15.7552 46.0324 15.7096L28.7339 5.63145C28.4982 5.49464 28.4146 5.19062 28.559 4.955C28.6959 4.71939 28.9999 4.6358 29.2355 4.78021L46.534 14.8584C46.7696 14.9952 46.8532 15.2991 46.7088 15.5348C46.6176 15.6944 46.4504 15.778 46.2832 15.778ZM6.25945 15.778C6.09224 15.778 5.92504 15.6868 5.83383 15.5348C5.69702 15.2991 5.78063 14.9952 6.01624 14.8584L23.3604 4.78021C23.596 4.6434 23.9 4.71939 24.0368 4.955C24.1736 5.19062 24.0976 5.49464 23.862 5.63145L6.51027 15.7096C6.43426 15.7552 6.35066 15.778 6.25945 15.778Z" fill="white"/>
    <path d="M26.2713 60.1801C24.2875 60.1801 22.6687 58.5535 22.6687 56.547C22.6687 54.7153 24.0215 53.1953 25.7772 52.9521V39.8034C25.7772 39.5298 25.9976 39.3093 26.2713 39.3093C26.5449 39.3093 26.7653 39.5298 26.7653 39.8034V52.9521C28.5134 53.1953 29.8662 54.7153 29.8662 56.547C29.8662 58.5459 28.255 60.1801 26.2713 60.1801ZM26.2713 53.9097C24.8272 53.9097 23.6567 55.0954 23.6567 56.547C23.6567 57.9987 24.8272 59.1844 26.2713 59.1844C27.7153 59.1844 28.8782 57.9987 28.8782 56.547C28.8782 55.0954 27.7077 53.9097 26.2713 53.9097ZM3.60684 46.9477C3.31043 46.9477 3.00641 46.9097 2.7024 46.8337C1.78275 46.5905 0.984705 45.9749 0.505879 45.1464C0.00425227 44.2952 -0.124955 43.3071 0.125859 42.3723C0.376672 41.4526 0.969504 40.685 1.80555 40.2138C2.64159 39.7121 3.61444 39.5753 4.54929 39.8338C5.30934 40.039 5.95537 40.4798 6.41899 41.103L17.7056 34.5135C17.9412 34.3767 18.2452 34.4527 18.382 34.6883C18.5188 34.9239 18.4428 35.2279 18.2072 35.3647L6.91302 41.9619C7.22464 42.7067 7.28544 43.5276 7.07263 44.3104C6.82182 45.2301 6.22898 45.9901 5.40054 46.4537C4.85331 46.7805 4.23768 46.9477 3.61445 46.9477H3.60684ZM3.62965 40.7002C3.17362 40.7002 2.7176 40.8294 2.29957 41.0726C1.69154 41.4146 1.25832 41.9695 1.08351 42.6307C0.9011 43.3147 0.999906 44.0292 1.36472 44.6524C1.70674 45.2528 2.28437 45.7013 2.95321 45.8761C3.61445 46.0509 4.30608 45.9521 4.89891 45.5949C5.50695 45.2529 5.93257 44.7056 6.11498 44.0444C6.30499 43.3603 6.19858 42.6383 5.83376 42.0151C5.83376 42.0151 5.83376 41.9998 5.82616 41.9922C5.48415 41.3842 4.94452 40.9586 4.29088 40.7838C4.07047 40.723 3.85006 40.6926 3.62965 40.6926V40.7002ZM48.9661 46.9477C48.3428 46.9477 47.7272 46.7729 47.1952 46.4385C45.6371 45.5721 44.9987 43.6339 45.6523 41.9619L34.3961 35.3571C34.1605 35.2203 34.0845 34.9163 34.2213 34.6807C34.3581 34.445 34.6621 34.3691 34.8977 34.5059L46.1387 41.103C46.6403 40.457 47.332 40.0009 48.1148 39.8109C49.0269 39.5829 49.9617 39.735 50.7598 40.2214C52.4547 41.1714 53.0627 43.3831 52.0974 45.1312C52.0974 45.1312 52.0974 45.1388 52.0898 45.1464C51.573 45.9977 50.7294 46.6133 49.7793 46.8413C49.5057 46.9097 49.2397 46.9401 48.9661 46.9401V46.9477ZM48.9433 40.7002C48.7457 40.7002 48.548 40.723 48.3504 40.7762C47.6664 40.9434 47.0812 41.3918 46.7087 42.0227C46.0095 43.2919 46.4503 44.9032 47.6892 45.5949C48.2516 45.9445 48.9053 46.0509 49.5437 45.8913C50.2353 45.724 50.851 45.2756 51.231 44.6524C51.9302 43.3755 51.4894 41.7719 50.2505 41.0802C49.8477 40.8294 49.3993 40.7002 48.9433 40.7002ZM34.6469 25.7426C34.4797 25.7426 34.3125 25.6514 34.2213 25.4994C34.0845 25.2638 34.1605 24.9598 34.3961 24.823L45.6447 18.2258C45.3559 17.4962 45.3103 16.6677 45.5307 15.9001C45.7891 14.9652 46.3895 14.1976 47.2104 13.7415C48.8673 12.7763 51.0638 13.3539 52.0822 15.0336C52.0822 15.0336 52.0822 15.0488 52.0898 15.0488C53.0551 16.8045 52.4699 18.9934 50.7446 20.0195C49.2017 20.9239 47.2332 20.4907 46.1311 19.0847L34.8901 25.6818C34.8141 25.7274 34.7229 25.7502 34.6393 25.7502L34.6469 25.7426ZM46.7087 18.1726C47.446 19.4267 49.0345 19.8751 50.2429 19.1606C51.497 18.4082 51.9302 16.8121 51.231 15.5277C50.4862 14.304 48.8977 13.8859 47.6968 14.5852C47.0964 14.9196 46.6631 15.4744 46.4807 16.1509C46.2907 16.8349 46.3743 17.5722 46.7163 18.165L46.7087 18.1726ZM17.9564 25.7426C17.8728 25.7426 17.7892 25.7198 17.7056 25.6742L6.41899 19.0847C5.96297 19.6927 5.31694 20.1411 4.5645 20.3539C3.63725 20.6199 2.65679 20.4983 1.80555 20.0195C0.0498548 18.9706 -0.512575 16.7817 0.505879 15.0336C1.47113 13.3463 3.66005 12.7611 5.39294 13.7339C6.22899 14.1976 6.82182 14.9804 7.07263 15.9229C7.27784 16.6905 7.21704 17.5114 6.91302 18.2334L18.2072 24.8306C18.4428 24.9674 18.5188 25.2713 18.382 25.507C18.2908 25.6666 18.1236 25.7502 17.9564 25.7502V25.7426ZM3.60684 14.2508C2.7024 14.2508 1.83595 14.7068 1.37233 15.5277C0.627485 16.8045 1.03791 18.4006 2.31478 19.1606C2.92281 19.5027 3.63725 19.5863 4.30608 19.3962C4.95972 19.2062 5.50695 18.773 5.84136 18.1726C5.84136 18.1726 5.84136 18.165 5.84136 18.1574C5.84136 18.1574 5.84896 18.1422 5.85656 18.1346C6.20618 17.5342 6.30499 16.8273 6.13018 16.1585C5.94777 15.4744 5.52215 14.9196 4.92171 14.5852C4.50369 14.3496 4.05527 14.2432 3.61445 14.2432L3.60684 14.2508ZM26.2713 20.8707C25.9976 20.8707 25.7772 20.6503 25.7772 20.3767V7.2356C24.0215 6.99239 22.6687 5.47231 22.6687 3.63302C22.6687 1.63411 24.2875 0 26.2713 0C28.255 0 29.8662 1.62651 29.8662 3.63302C29.8662 5.46471 28.5134 6.98479 26.7653 7.2356V20.3767C26.7653 20.6503 26.5449 20.8707 26.2713 20.8707ZM26.2713 0.995651C24.8272 0.995651 23.6567 2.18135 23.6567 3.64062C23.6567 5.0999 24.8272 6.28555 26.2713 6.28555C27.7153 6.28555 28.8782 5.0999 28.8782 3.64062C28.8782 2.18135 27.7077 0.995651 26.2713 0.995651Z" fill="white"/>
    <path d="M30.4819 34.8181H22.1139C20.7078 34.8181 19.5677 33.6933 19.5677 32.3024C19.5677 30.9115 20.7306 29.7411 22.1139 29.7411C22.1595 29.7411 22.1975 29.7411 22.2431 29.7411C22.5091 28.943 23.1323 28.3198 23.9228 28.0842C24.128 26.5489 25.4504 25.3633 27.0541 25.3633C28.6578 25.3633 30.0715 26.6553 30.2007 28.297C30.7859 28.6314 31.2343 29.1179 31.4852 29.6803C32.4276 30.0831 32.9824 30.9419 32.9824 32.0212C32.9824 33.3133 31.8956 34.8106 30.4895 34.8106L30.4819 34.8181ZM22.1139 30.7292C21.2854 30.7292 20.5558 31.4664 20.5558 32.3024C20.5558 33.1385 21.255 33.8301 22.1139 33.8301H30.4819C31.2571 33.8301 31.9868 32.8116 31.9868 32.0288C31.9868 31.0864 31.4168 30.6988 30.9379 30.5392C30.7935 30.4936 30.6719 30.3719 30.6263 30.2275C30.4667 29.7411 30.0563 29.3155 29.5014 29.0647C29.3266 28.9811 29.2126 28.8062 29.2126 28.6162C29.2126 27.347 28.2398 26.3665 27.0465 26.3665C25.8533 26.3665 24.8804 27.3469 24.8804 28.5022C24.8804 28.753 24.6904 28.9658 24.4472 28.9963C23.7555 29.0799 23.1931 29.6727 23.1095 30.4099C23.0943 30.5543 23.0107 30.6836 22.8891 30.7672C22.7675 30.8508 22.6155 30.8659 22.4711 30.8279C22.3039 30.7747 22.1899 30.7443 22.1139 30.7443V30.7292Z" fill="white"/>
    <path d="M28.0497 46.8571C27.8825 46.8571 27.7153 46.7659 27.6241 46.6138C27.4873 46.3782 27.5633 46.0742 27.7989 45.9374L39.1083 39.3327C39.3439 39.1958 39.6479 39.2719 39.7848 39.5075C39.9216 39.7431 39.8456 40.0471 39.6099 40.1839L28.3005 46.7886C28.2245 46.8342 28.1333 46.8571 28.0497 46.8571ZM24.5535 46.8571C24.4699 46.8571 24.3863 46.8342 24.3027 46.7886L12.9933 40.1839C12.7577 40.0471 12.6817 39.7431 12.8185 39.5075C12.9553 39.2719 13.2593 39.1958 13.495 39.3327L24.8044 45.9374C25.04 46.0742 25.116 46.3782 24.9792 46.6138C24.888 46.7735 24.7208 46.8571 24.5535 46.8571ZM41.0692 37.1666C40.7956 37.1666 40.5752 36.9461 40.5752 36.6725V23.5162C40.5752 23.2426 40.7956 23.0222 41.0692 23.0222C41.3428 23.0222 41.5632 23.2426 41.5632 23.5162V36.6725C41.5632 36.9461 41.3428 37.1666 41.0692 37.1666ZM11.4732 37.1666C11.1996 37.1666 10.9792 36.9461 10.9792 36.6725V23.5162C10.9792 23.2426 11.1996 23.0222 11.4732 23.0222C11.7469 23.0222 11.9673 23.2426 11.9673 23.5162V36.6725C11.9673 36.9461 11.7469 37.1666 11.4732 37.1666ZM39.3515 20.9321C39.2679 20.9321 39.1843 20.9093 39.1007 20.8637L27.7913 14.2589C27.5557 14.1221 27.4797 13.8181 27.6165 13.5825C27.7533 13.3469 28.0573 13.2709 28.2929 13.4077L39.6023 20.0124C39.838 20.1492 39.914 20.4533 39.7772 20.6889C39.6859 20.8485 39.5187 20.9321 39.3515 20.9321ZM13.2441 20.9321C13.0769 20.9321 12.9097 20.8409 12.8185 20.6889C12.6817 20.4533 12.7577 20.1492 12.9933 20.0124L24.3027 13.4077C24.5383 13.2709 24.8424 13.3469 24.9792 13.5825C25.116 13.8181 25.04 14.1221 24.8044 14.2589L13.495 20.8637C13.4189 20.9093 13.3277 20.9321 13.2441 20.9321Z" fill="white"/>
</svg>