<svg xmlns="http://www.w3.org/2000/svg" width="46" height="52" viewBox="0 0 46 52" fill="none">
    <path d="M3.37106 29.6837C3.19549 29.6837 3.0199 29.5081 3.0199 29.3324V4.39037C3.0199 4.21472 3.19549 4.03906 3.37106 4.03906H38.0919C38.2675 4.03906 38.4431 4.21472 38.4431 4.39037V9.04505C38.4431 9.2207 38.2675 9.39634 38.0919 9.39634H10.921L3.73099 29.5959C3.6432 29.5959 3.46763 29.6837 3.37984 29.6837H3.37106ZM3.72222 4.65384V27.4003L10.3855 8.78158C10.4733 8.69375 10.5611 8.5181 10.7366 8.5181H37.8198V4.56601H3.71344V4.65384H3.72222Z" fill="white"/>
    <path d="M38.0041 29.6852H3.37096C3.28317 29.6852 3.19538 29.5974 3.10759 29.5096C3.0198 29.4217 3.0198 29.3339 3.10759 29.2461L10.3854 8.87088C10.4732 8.78306 10.561 8.60742 10.7365 8.60742H45.4574C45.5452 8.60742 45.633 8.69524 45.7208 8.78307C45.8086 8.87089 45.8086 8.95872 45.7208 9.04654L38.3464 29.5096C38.2586 29.5974 38.1709 29.6852 37.9953 29.6852H38.0041ZM3.81869 29.0704H37.8285L44.8429 9.31H10.9209L3.81869 29.0704Z" fill="white"/>
    <path d="M18.7345 4.65468H6.30342C6.12784 4.65468 5.95227 4.47903 5.95227 4.30338V0.351291C5.95227 0.175643 6.12784 0 6.30342 0H15.1878C15.2755 0 15.3633 -8.04185e-06 15.4511 0.0878161L19.0944 4.0399C19.1822 4.12773 19.1822 4.30338 19.1822 4.39121C19.0066 4.65468 18.9188 4.65468 18.7345 4.65468ZM6.65458 4.0399H18.0234L15.0034 0.790412H6.65458V4.0399Z" fill="white"/>
    <path d="M34.7208 9.30848H14.1165C13.941 9.30848 13.7654 9.13284 13.7654 8.95719V6.93723C13.7654 6.76158 13.941 6.58594 14.1165 6.58594H34.7208C34.8964 6.58594 35.072 6.76158 35.072 6.93723V8.95719C35.072 9.22066 34.8964 9.30848 34.7208 9.30848ZM14.3799 8.69371H34.3609V7.28853H14.3799V8.69371Z" fill="white"/>
    <path d="M39.2505 13.0854H13.2296C13.054 13.0854 12.8784 12.9098 12.8784 12.7341C12.8784 12.5585 13.054 12.3828 13.2296 12.3828H39.2505C39.4261 12.3828 39.6016 12.5585 39.6016 12.7341C39.5138 12.9976 39.4261 13.0854 39.2505 13.0854Z" fill="white"/>
    <path d="M9.76212 46.371H2.48433C2.30875 46.371 2.13318 46.1953 2.13318 46.0197V38.8181C2.13318 38.6424 2.30875 38.4668 2.48433 38.4668H9.76212C9.9377 38.4668 10.1133 38.6424 10.1133 38.8181V46.0197C10.0255 46.1953 9.9377 46.371 9.76212 46.371ZM2.8355 45.6684H9.41095V39.1694H2.8355V45.6684Z" fill="white"/>
    <path d="M24.3262 44.0878H17.0484C16.8729 44.0878 16.6973 43.9122 16.6973 43.7365V36.6228C16.6973 36.4471 16.8729 36.2715 17.0484 36.2715H24.3262C24.5018 36.2715 24.6774 36.4471 24.6774 36.6228V43.8244C24.6774 44 24.5018 44.0878 24.3262 44.0878ZM17.3996 43.4731H23.9751V36.9741H17.3996V43.4731Z" fill="white"/>
    <path d="M38.8908 46.371H31.613C31.4374 46.371 31.2618 46.1953 31.2618 46.0197V38.8181C31.2618 38.6424 31.4374 38.4668 31.613 38.4668H38.8908C39.0664 38.4668 39.2419 38.6424 39.2419 38.8181V46.0197C39.2419 46.1953 39.0664 46.371 38.8908 46.371ZM31.9642 45.6684H38.5396V39.1694H31.9642V45.6684Z" fill="white"/>
    <path d="M20.6921 36.9745C20.5165 36.9745 20.3409 36.7988 20.3409 36.6232V29.4216C20.3409 29.246 20.5165 29.0703 20.6921 29.0703C20.8677 29.0703 21.0433 29.246 21.0433 29.4216V36.6232C21.0433 36.7988 20.8677 36.9745 20.6921 36.9745Z" fill="white"/>
    <path d="M6.12753 39.1692C5.95195 39.1692 5.77637 38.9935 5.77637 38.8179V33.3728C5.77637 33.1971 5.95195 33.0215 6.12753 33.0215H20.6919C20.8674 33.0215 21.043 33.1971 21.043 33.3728C21.043 33.5484 20.8674 33.7241 20.6919 33.7241H6.47869V38.8179C6.47869 38.9935 6.30311 39.1692 6.12753 39.1692Z" fill="white"/>
    <path d="M35.2564 39.1692C35.0808 39.1692 34.9053 38.9935 34.9053 38.8179V33.7241H20.6921C20.5165 33.7241 20.3409 33.5484 20.3409 33.3728C20.3409 33.1971 20.5165 33.0215 20.6921 33.0215H35.2564C35.432 33.0215 35.6076 33.1971 35.6076 33.3728V38.8179C35.6076 38.9935 35.5198 39.1692 35.2564 39.1692Z" fill="white"/>
    <path d="M6.12773 44.7031C6.03994 44.7031 5.95214 44.7031 5.86435 44.6153L3.90664 42.6831C3.81885 42.5953 3.81885 42.5075 3.81885 42.4197C3.81885 42.3319 3.81885 42.244 3.90664 42.1562L5.86435 40.2241C5.95214 40.1362 6.21551 40.1362 6.31208 40.2241L8.2698 42.1562C8.35759 42.244 8.35758 42.3319 8.35758 42.4197C8.35758 42.5075 8.35759 42.5953 8.2698 42.6831L6.40865 44.6153C6.32086 44.6153 6.23306 44.7031 6.14527 44.7031H6.12773ZM4.61774 42.4197L6.03993 43.8249L7.46212 42.4197L6.12773 41.0145L4.61774 42.4197Z" fill="white"/>
    <path d="M35.2564 44.7036C35.1686 44.7036 35.0808 44.7036 34.993 44.6158L33.0353 42.6837C32.9475 42.5959 32.9475 42.3324 33.0353 42.2446L34.993 40.3124C35.0808 40.2246 35.1686 40.2246 35.2564 40.2246C35.3442 40.2246 35.432 40.2246 35.5198 40.3124L37.4775 42.2446C37.5653 42.3324 37.5653 42.4202 37.5653 42.508C37.5653 42.5959 37.5653 42.6837 37.4775 42.7715L35.5198 44.7036C35.432 44.6158 35.3442 44.7036 35.2564 44.7036ZM33.8342 42.4202L35.2564 43.8254L36.6786 42.4202L35.2564 41.015L33.8342 42.4202Z" fill="white"/>
    <path d="M20.6921 40.4866C20.6043 40.4866 20.5165 40.4866 20.4288 40.3988C20.341 40.3109 20.341 40.0475 20.4288 39.9596L24.072 36.3588C24.1598 36.271 24.4232 36.271 24.5198 36.3588C24.6076 36.4467 24.6076 36.7101 24.5198 36.798L20.8765 40.3988C20.8765 40.4866 20.7887 40.4866 20.7009 40.4866H20.6921Z" fill="white"/>
    <path d="M20.692 40.4866C20.6042 40.4866 20.5164 40.4866 20.4286 40.3988L16.7853 36.798C16.6975 36.7101 16.6975 36.4467 16.7853 36.3588C16.8731 36.271 17.1365 36.271 17.233 36.3588L20.8763 39.9596C20.9641 40.0475 20.9641 40.3109 20.8763 40.3988C20.8763 40.4866 20.7885 40.4866 20.7007 40.4866H20.692Z" fill="white"/>
    <path d="M17.0487 44.0881C16.9609 44.0881 16.8731 44.0881 16.7853 44.0003C16.6975 43.9125 16.6975 43.649 16.7853 43.5612L20.4286 39.9604C20.5164 39.8726 20.7798 39.8726 20.8763 39.9604C20.9641 40.0482 20.9641 40.3117 20.8763 40.3995L17.233 44.0003C17.233 44.0881 17.1453 44.0881 17.0575 44.0881H17.0487Z" fill="white"/>
    <path d="M24.3266 44.0881C24.2388 44.0881 24.151 44.0881 24.0632 44.0003L20.42 40.3995C20.3322 40.3117 20.3322 40.0482 20.42 39.9604C20.5078 39.8726 20.7711 39.8726 20.8677 39.9604L24.511 43.5612C24.5988 43.649 24.5988 43.9125 24.511 44.0003C24.511 44.0881 24.4232 44.0881 24.3354 44.0881H24.3266Z" fill="white"/>
    <path d="M6.30354 31.9678H0.974689C0.79911 31.9678 0.623535 31.7921 0.623535 31.6165V15.5447C0.623535 15.369 0.79911 15.1934 0.974689 15.1934C1.15027 15.1934 1.32586 15.369 1.32586 15.5447V31.353H6.29477C6.47035 31.353 6.64592 31.5286 6.64592 31.7043C6.64592 31.8799 6.47035 31.9678 6.29477 31.9678H6.30354Z" fill="white"/>
    <path d="M39.9617 6.76326C39.7861 6.76326 39.6106 6.58762 39.6106 6.41197V1.75728H29.4006C29.225 1.75728 29.0494 1.58163 29.0494 1.40598C29.0494 1.23033 29.225 1.05469 29.4006 1.05469H39.9705C40.1461 1.05469 40.3217 1.23033 40.3217 1.40598V6.41197C40.3217 6.67544 40.1461 6.76326 39.9705 6.76326H39.9617Z" fill="white"/>
    <path d="M31.8765 49.4448H1.58896C1.41338 49.4448 1.23779 49.2691 1.23779 49.0935C1.23779 48.9178 1.41338 48.7422 1.58896 48.7422H31.9642C32.1398 48.7422 32.3154 48.9178 32.3154 49.0935C32.2276 49.2691 32.1398 49.4448 31.8677 49.4448H31.8765Z" fill="white"/>
    <path d="M40.3131 51.2885H19.3576C19.182 51.2885 19.0065 51.1129 19.0065 50.9372C19.0065 50.7616 19.182 50.5859 19.3576 50.5859H40.4009C40.5764 50.5859 40.752 50.7616 40.752 50.9372C40.6642 51.1129 40.4886 51.2885 40.3043 51.2885H40.3131Z" fill="white"/>
    <path d="M45.1065 51.2885H42.4465C42.2709 51.2885 42.0953 51.1129 42.0953 50.9372C42.0953 50.7616 42.2709 50.5859 42.4465 50.5859H45.1065C45.2821 50.5859 45.4577 50.7616 45.4577 50.9372C45.4577 51.1129 45.2821 51.2885 45.1065 51.2885Z" fill="white"/>
    <path d="M10.2978 51.2006H0.351167C0.175588 51.2006 0 51.025 0 50.8493C0 50.6737 0.175588 50.498 0.351167 50.498H10.2978C10.4733 50.498 10.6489 50.6737 10.6489 50.8493C10.6489 51.025 10.4733 51.2006 10.2978 51.2006Z" fill="white"/>
</svg>