<svg xmlns="http://www.w3.org/2000/svg" width="61" height="61" viewBox="0 0 61 61" fill="none">
    <mask id="path-1-inside-1_100_228" fill="white">
        <path d="M59.2575 28.7556C58.4044 28.7556 57.6927 29.3707 57.5413 30.1812H47.4394V25.8478H52.8454C52.9961 26.6584 53.7078 27.2735 54.5616 27.2735C55.5244 27.2735 56.3072 26.4899 56.3072 25.5279C56.3072 24.5658 55.5237 23.7823 54.5616 23.7823C53.7085 23.7823 52.9968 24.3974 52.8454 25.208H47.4394V21.4734H53.418L55.4193 19.472C55.7006 19.6652 56.0399 19.7788 56.4061 19.7788C57.3689 19.7788 58.1517 18.9952 58.1517 18.0332C58.1517 17.0711 57.3682 16.2876 56.4061 16.2876C55.4441 16.2876 54.6605 17.0711 54.6605 18.0332C54.6605 18.3987 54.7741 18.7387 54.9673 19.02L53.1529 20.8343H47.4402V19.5725C47.4402 18.7881 47.1349 18.0502 46.5801 17.4954L43.5093 14.4245C42.9545 13.8697 42.2173 13.5645 41.4322 13.5645H40.1703V7.09752L41.9847 5.28315C42.2652 5.47633 42.6052 5.58992 42.9715 5.58992C43.9343 5.58992 44.7171 4.80637 44.7171 3.84433C44.7171 2.88228 43.9335 2.09873 42.9715 2.09873C42.0094 2.09873 41.2259 2.88228 41.2259 3.84433C41.2259 4.20983 41.3395 4.54983 41.5326 4.8311L39.5313 6.83247V13.5645H35.7967V9.27893C36.6065 9.12825 37.2224 8.41656 37.2224 7.5627C37.2224 6.59988 36.4388 5.8171 35.4768 5.8171C34.5147 5.8171 33.7312 6.60065 33.7312 7.5627C33.7312 8.41579 34.3463 9.12747 35.1569 9.27893V13.5645H30.8234V3.46183C31.6332 3.31114 32.2491 2.59946 32.2491 1.74559C32.2491 0.782775 31.4655 0 30.5035 0C29.5414 0 28.7579 0.783547 28.7579 1.74559C28.7579 2.59869 29.373 3.31037 30.1836 3.46183V13.5637H25.8501V8.1577C26.6607 8.00702 27.2758 7.29533 27.2758 6.44147C27.2758 5.47865 26.4922 4.69587 25.5302 4.69587C24.5681 4.69587 23.7846 5.47942 23.7846 6.44147C23.7846 7.29456 24.3997 8.00624 25.2103 8.1577V13.5637H21.4757V7.58511L19.4743 5.58374C19.6675 5.30324 19.7811 4.96324 19.7811 4.59696C19.7811 3.63414 18.9975 2.85137 18.0355 2.85137C17.0734 2.85137 16.2899 3.63492 16.2899 4.59696C16.2899 5.55901 17.0734 6.34256 18.0355 6.34256C18.401 6.34256 18.741 6.22897 19.0223 6.03579L20.8366 7.85015V13.5629H19.5748C18.7905 13.5629 18.0525 13.8682 17.4977 14.423L14.4269 17.4938C13.872 18.0486 13.5668 18.7858 13.5668 19.5709V20.8328H7.09983L5.28547 19.0184C5.47865 18.7379 5.59224 18.3979 5.59224 18.0316C5.59224 17.0688 4.80869 16.286 3.84664 16.286C2.8846 16.286 2.10105 17.0696 2.10105 18.0316C2.10105 18.9937 2.8846 19.7772 3.84664 19.7772C4.21215 19.7772 4.55215 19.6636 4.83342 19.4705L6.83479 21.4718H13.5668V25.2064H9.28125C9.13057 24.3966 8.41888 23.7807 7.56502 23.7807C6.6022 23.7807 5.81942 24.5643 5.81942 25.5263C5.81942 26.4884 6.60297 27.2719 7.56502 27.2719C8.41811 27.2719 9.12979 26.6568 9.28125 25.8462H13.5668V30.1797H3.46183C3.31114 29.3699 2.59946 28.754 1.74559 28.754C0.782775 28.754 0 29.5376 0 30.4996C0 31.4617 0.783547 32.2452 1.74559 32.2452C2.59869 32.2452 3.31037 31.6301 3.46183 30.8195H13.5637V35.153H8.1577C8.00702 34.3424 7.29533 33.7273 6.44147 33.7273C5.47865 33.7273 4.69587 34.5108 4.69587 35.4729C4.69587 36.4349 5.47942 37.2185 6.44147 37.2185C7.29456 37.2185 8.00624 36.6034 8.1577 35.7928H13.5637V39.5274H7.58511L5.58374 41.5288C5.30324 41.3356 4.96324 41.222 4.59696 41.222C3.63414 41.222 2.85137 42.0055 2.85137 42.9676C2.85137 43.9296 3.63492 44.7132 4.59696 44.7132C5.55901 44.7132 6.34256 43.9296 6.34256 42.9676C6.34256 42.6021 6.22897 42.2621 6.03579 41.9808L7.85015 40.1665H13.5629V41.4283C13.5629 42.2126 13.8682 42.9506 14.423 43.5054L17.4938 46.5762C18.0486 47.1311 18.7858 47.4363 19.5709 47.4363H20.8328V53.9033L19.0184 55.7176C18.7379 55.5244 18.3979 55.4109 18.0316 55.4109C17.0688 55.4109 16.286 56.1944 16.286 57.1564C16.286 58.1185 17.0696 58.902 18.0316 58.902C18.9937 58.902 19.7772 58.1185 19.7772 57.1564C19.7772 56.7909 19.6636 56.4509 19.4705 56.1697L21.4718 54.1683V47.4363H25.2064V51.7218C24.3966 51.8725 23.7807 52.5842 23.7807 53.4381C23.7807 54.4009 24.5643 55.1837 25.5263 55.1837C26.4884 55.1837 27.2719 54.4001 27.2719 53.4381C27.2719 52.585 26.6568 51.8733 25.8462 51.7218V47.4363H30.1797V57.5382C29.3699 57.6889 28.754 58.4005 28.754 59.2544C28.754 60.2172 29.5376 61 30.4996 61C31.4617 61 32.2452 60.2165 32.2452 59.2544C32.2452 58.4013 31.6301 57.6896 30.8195 57.5382V47.4363H35.153V52.8423C34.3424 52.993 33.7273 53.7047 33.7273 54.5585C33.7273 55.5214 34.5108 56.3041 35.4729 56.3041C36.4349 56.3041 37.2185 55.5206 37.2185 54.5585C37.2185 53.7054 36.6034 52.9938 35.7928 52.8423V47.4363H39.5274V53.4149L41.5288 55.4163C41.3356 55.6975 41.222 56.0368 41.222 56.403C41.222 57.3659 42.0055 58.1486 42.9676 58.1486C43.9296 58.1486 44.7132 57.3651 44.7132 56.403C44.7132 55.441 43.9296 54.6574 42.9676 54.6574C42.6021 54.6574 42.2621 54.771 41.9808 54.9642L40.1665 53.1498V47.4371H41.4283C42.2126 47.4371 42.9506 47.1318 43.5054 46.577L46.5762 43.5062C47.1311 42.9514 47.4363 42.2142 47.4363 41.4291V40.1672H53.9033L55.7176 41.9816C55.5244 42.2621 55.4109 42.6021 55.4109 42.9684C55.4109 43.9312 56.1944 44.714 57.1564 44.714C58.1185 44.714 58.902 43.9304 58.902 42.9684C58.902 42.0063 58.1185 41.2228 57.1564 41.2228C56.7909 41.2228 56.4509 41.3364 56.1697 41.5295L54.1683 39.5282H47.4363V35.7936H51.7218C51.8725 36.6034 52.5842 37.2193 53.4381 37.2193C54.4009 37.2193 55.1837 36.4357 55.1837 35.4737C55.1837 34.5116 54.4001 33.7281 53.4381 33.7281C52.585 33.7281 51.8733 34.3432 51.7218 35.1538H47.4363V30.8203H57.5382C57.6889 31.6301 58.4005 32.246 59.2544 32.246C60.2172 32.246 61 31.4624 61 30.5004C61 29.5383 60.2165 28.7548 59.2544 28.7548L59.2575 28.7556ZM54.5624 24.4229C55.1721 24.4229 55.6682 24.919 55.6682 25.5286C55.6682 26.1383 55.1721 26.6344 54.5624 26.6344C53.9527 26.6344 53.4566 26.1383 53.4566 25.5286C53.4566 24.919 53.9527 24.4229 54.5624 24.4229ZM56.4061 16.9266C57.0158 16.9266 57.5119 17.4227 57.5119 18.0324C57.5119 18.6421 57.0158 19.1382 56.4061 19.1382C55.7964 19.1382 55.3004 18.6421 55.3004 18.0324C55.3004 17.4227 55.7964 16.9266 56.4061 16.9266ZM42.9715 2.73778C43.5811 2.73778 44.0772 3.23387 44.0772 3.84355C44.0772 4.45324 43.5811 4.94933 42.9715 4.94933C42.3618 4.94933 41.8657 4.45324 41.8657 3.84355C41.8657 3.23387 42.3618 2.73778 42.9715 2.73778ZM34.3702 7.56193C34.3702 6.95224 34.8663 6.45615 35.476 6.45615C36.0857 6.45615 36.5818 6.95224 36.5818 7.56193C36.5818 8.17161 36.0857 8.6677 35.476 8.6677C34.8663 8.6677 34.3702 8.17161 34.3702 7.56193ZM29.3962 1.74559C29.3962 1.13591 29.8923 0.63982 30.5019 0.63982C31.1116 0.63982 31.6077 1.13591 31.6077 1.74559C31.6077 2.35528 31.1116 2.85137 30.5019 2.85137C29.8923 2.85137 29.3962 2.35528 29.3962 1.74559ZM24.4229 6.44147C24.4229 5.83179 24.919 5.33569 25.5286 5.33569C26.1383 5.33569 26.6344 5.83179 26.6344 6.44147C26.6344 7.05115 26.1383 7.54724 25.5286 7.54724C24.919 7.54724 24.4229 7.05115 24.4229 6.44147ZM18.0324 5.70274C17.4227 5.70274 16.9266 5.20665 16.9266 4.59696C16.9266 3.98728 17.4227 3.49119 18.0324 3.49119C18.6421 3.49119 19.1382 3.98728 19.1382 4.59696C19.1382 5.20665 18.6421 5.70274 18.0324 5.70274ZM3.84355 19.1382C3.23387 19.1382 2.73778 18.6421 2.73778 18.0324C2.73778 17.4227 3.23387 16.9266 3.84355 16.9266C4.45324 16.9266 4.94933 17.4227 4.94933 18.0324C4.94933 18.6421 4.45324 19.1382 3.84355 19.1382ZM7.56193 26.6337C6.95224 26.6337 6.45615 26.1376 6.45615 25.5279C6.45615 24.9182 6.95224 24.4221 7.56193 24.4221C8.17161 24.4221 8.6677 24.9182 8.6677 25.5279C8.6677 26.1376 8.17161 26.6337 7.56193 26.6337ZM1.74559 31.6069C1.13591 31.6069 0.63982 31.1108 0.63982 30.5012C0.63982 29.8915 1.13591 29.3954 1.74559 29.3954C2.35528 29.3954 2.85137 29.8915 2.85137 30.5012C2.85137 31.1108 2.35528 31.6069 1.74559 31.6069ZM6.44147 36.581C5.83179 36.581 5.33569 36.0849 5.33569 35.4752C5.33569 34.8655 5.83179 34.3694 6.44147 34.3694C7.05115 34.3694 7.54724 34.8655 7.54724 35.4752C7.54724 36.0849 7.05115 36.581 6.44147 36.581ZM4.59696 44.0765C3.98728 44.0765 3.49119 43.5804 3.49119 42.9707C3.49119 42.361 3.98728 41.8649 4.59696 41.8649C5.20665 41.8649 5.70274 42.361 5.70274 42.9707C5.70274 43.5804 5.20665 44.0765 4.59696 44.0765ZM18.0324 58.2653C17.4227 58.2653 16.9266 57.7692 16.9266 57.1595C16.9266 56.5499 17.4227 56.0538 18.0324 56.0538C18.6421 56.0538 19.1382 56.5499 19.1382 57.1595C19.1382 57.7692 18.6421 58.2653 18.0324 58.2653ZM26.6337 53.4419C26.6337 54.0516 26.1376 54.5477 25.5279 54.5477C24.9182 54.5477 24.4221 54.0516 24.4221 53.4419C24.4221 52.8323 24.9182 52.3362 25.5279 52.3362C26.1376 52.3362 26.6337 52.8323 26.6337 53.4419ZM31.6069 59.2575C31.6069 59.8672 31.1108 60.3633 30.5012 60.3633C29.8915 60.3633 29.3954 59.8672 29.3954 59.2575C29.3954 58.6478 29.8915 58.1517 30.5012 58.1517C31.1108 58.1517 31.6069 58.6478 31.6069 59.2575ZM36.581 54.5624C36.581 55.1721 36.0849 55.6682 35.4752 55.6682C34.8655 55.6682 34.3694 55.1721 34.3694 54.5624C34.3694 53.9527 34.8655 53.4566 35.4752 53.4566C36.0849 53.4566 36.581 53.9527 36.581 54.5624ZM42.9715 55.3011C43.5811 55.3011 44.0772 55.7972 44.0772 56.4069C44.0772 57.0166 43.5811 57.5127 42.9715 57.5127C42.3618 57.5127 41.8657 57.0166 41.8657 56.4069C41.8657 55.7972 42.3618 55.3011 42.9715 55.3011ZM57.1603 41.8657C57.77 41.8657 58.2661 42.3618 58.2661 42.9715C58.2661 43.5811 57.77 44.0772 57.1603 44.0772C56.5506 44.0772 56.0545 43.5811 56.0545 42.9715C56.0545 42.3618 56.5506 41.8657 57.1603 41.8657ZM53.4419 34.3702C54.0516 34.3702 54.5477 34.8663 54.5477 35.476C54.5477 36.0857 54.0516 36.5818 53.4419 36.5818C52.8323 36.5818 52.3362 36.0857 52.3362 35.476C52.3362 34.8663 52.8323 34.3702 53.4419 34.3702ZM46.7996 41.4322C46.7996 42.0457 46.5608 42.6222 46.1265 43.0565L43.0557 46.1273C42.6222 46.5608 42.045 46.7996 41.4314 46.7996H19.5717C18.9581 46.7996 18.3817 46.5608 17.9474 46.1273L14.8766 43.0565C14.4431 42.623 14.2043 42.0457 14.2043 41.4322V19.5717C14.2043 18.9581 14.4431 18.3817 14.8766 17.9474L17.9474 14.8766C18.3809 14.4431 18.9581 14.2035 19.5717 14.2035H41.4322C42.0457 14.2035 42.6222 14.4423 43.0565 14.8766L46.1273 17.9474C46.5608 18.3809 46.8003 18.9581 46.8003 19.5717V41.4322H46.7996ZM59.2575 31.6069C58.6478 31.6069 58.1517 31.1108 58.1517 30.5012C58.1517 29.8915 58.6478 29.3954 59.2575 29.3954C59.8672 29.3954 60.3633 29.8915 60.3633 30.5012C60.3633 31.1108 59.8672 31.6069 59.2575 31.6069Z"/>
    </mask>
    <path d="M59.2575 28.7556C58.4044 28.7556 57.6927 29.3707 57.5413 30.1812H47.4394V25.8478H52.8454C52.9961 26.6584 53.7078 27.2735 54.5616 27.2735C55.5244 27.2735 56.3072 26.4899 56.3072 25.5279C56.3072 24.5658 55.5237 23.7823 54.5616 23.7823C53.7085 23.7823 52.9968 24.3974 52.8454 25.208H47.4394V21.4734H53.418L55.4193 19.472C55.7006 19.6652 56.0399 19.7788 56.4061 19.7788C57.3689 19.7788 58.1517 18.9952 58.1517 18.0332C58.1517 17.0711 57.3682 16.2876 56.4061 16.2876C55.4441 16.2876 54.6605 17.0711 54.6605 18.0332C54.6605 18.3987 54.7741 18.7387 54.9673 19.02L53.1529 20.8343H47.4402V19.5725C47.4402 18.7881 47.1349 18.0502 46.5801 17.4954L43.5093 14.4245C42.9545 13.8697 42.2173 13.5645 41.4322 13.5645H40.1703V7.09752L41.9847 5.28315C42.2652 5.47633 42.6052 5.58992 42.9715 5.58992C43.9343 5.58992 44.7171 4.80637 44.7171 3.84433C44.7171 2.88228 43.9335 2.09873 42.9715 2.09873C42.0094 2.09873 41.2259 2.88228 41.2259 3.84433C41.2259 4.20983 41.3395 4.54983 41.5326 4.8311L39.5313 6.83247V13.5645H35.7967V9.27893C36.6065 9.12825 37.2224 8.41656 37.2224 7.5627C37.2224 6.59988 36.4388 5.8171 35.4768 5.8171C34.5147 5.8171 33.7312 6.60065 33.7312 7.5627C33.7312 8.41579 34.3463 9.12747 35.1569 9.27893V13.5645H30.8234V3.46183C31.6332 3.31114 32.2491 2.59946 32.2491 1.74559C32.2491 0.782775 31.4655 0 30.5035 0C29.5414 0 28.7579 0.783547 28.7579 1.74559C28.7579 2.59869 29.373 3.31037 30.1836 3.46183V13.5637H25.8501V8.1577C26.6607 8.00702 27.2758 7.29533 27.2758 6.44147C27.2758 5.47865 26.4922 4.69587 25.5302 4.69587C24.5681 4.69587 23.7846 5.47942 23.7846 6.44147C23.7846 7.29456 24.3997 8.00624 25.2103 8.1577V13.5637H21.4757V7.58511L19.4743 5.58374C19.6675 5.30324 19.7811 4.96324 19.7811 4.59696C19.7811 3.63414 18.9975 2.85137 18.0355 2.85137C17.0734 2.85137 16.2899 3.63492 16.2899 4.59696C16.2899 5.55901 17.0734 6.34256 18.0355 6.34256C18.401 6.34256 18.741 6.22897 19.0223 6.03579L20.8366 7.85015V13.5629H19.5748C18.7905 13.5629 18.0525 13.8682 17.4977 14.423L14.4269 17.4938C13.872 18.0486 13.5668 18.7858 13.5668 19.5709V20.8328H7.09983L5.28547 19.0184C5.47865 18.7379 5.59224 18.3979 5.59224 18.0316C5.59224 17.0688 4.80869 16.286 3.84664 16.286C2.8846 16.286 2.10105 17.0696 2.10105 18.0316C2.10105 18.9937 2.8846 19.7772 3.84664 19.7772C4.21215 19.7772 4.55215 19.6636 4.83342 19.4705L6.83479 21.4718H13.5668V25.2064H9.28125C9.13057 24.3966 8.41888 23.7807 7.56502 23.7807C6.6022 23.7807 5.81942 24.5643 5.81942 25.5263C5.81942 26.4884 6.60297 27.2719 7.56502 27.2719C8.41811 27.2719 9.12979 26.6568 9.28125 25.8462H13.5668V30.1797H3.46183C3.31114 29.3699 2.59946 28.754 1.74559 28.754C0.782775 28.754 0 29.5376 0 30.4996C0 31.4617 0.783547 32.2452 1.74559 32.2452C2.59869 32.2452 3.31037 31.6301 3.46183 30.8195H13.5637V35.153H8.1577C8.00702 34.3424 7.29533 33.7273 6.44147 33.7273C5.47865 33.7273 4.69587 34.5108 4.69587 35.4729C4.69587 36.4349 5.47942 37.2185 6.44147 37.2185C7.29456 37.2185 8.00624 36.6034 8.1577 35.7928H13.5637V39.5274H7.58511L5.58374 41.5288C5.30324 41.3356 4.96324 41.222 4.59696 41.222C3.63414 41.222 2.85137 42.0055 2.85137 42.9676C2.85137 43.9296 3.63492 44.7132 4.59696 44.7132C5.55901 44.7132 6.34256 43.9296 6.34256 42.9676C6.34256 42.6021 6.22897 42.2621 6.03579 41.9808L7.85015 40.1665H13.5629V41.4283C13.5629 42.2126 13.8682 42.9506 14.423 43.5054L17.4938 46.5762C18.0486 47.1311 18.7858 47.4363 19.5709 47.4363H20.8328V53.9033L19.0184 55.7176C18.7379 55.5244 18.3979 55.4109 18.0316 55.4109C17.0688 55.4109 16.286 56.1944 16.286 57.1564C16.286 58.1185 17.0696 58.902 18.0316 58.902C18.9937 58.902 19.7772 58.1185 19.7772 57.1564C19.7772 56.7909 19.6636 56.4509 19.4705 56.1697L21.4718 54.1683V47.4363H25.2064V51.7218C24.3966 51.8725 23.7807 52.5842 23.7807 53.4381C23.7807 54.4009 24.5643 55.1837 25.5263 55.1837C26.4884 55.1837 27.2719 54.4001 27.2719 53.4381C27.2719 52.585 26.6568 51.8733 25.8462 51.7218V47.4363H30.1797V57.5382C29.3699 57.6889 28.754 58.4005 28.754 59.2544C28.754 60.2172 29.5376 61 30.4996 61C31.4617 61 32.2452 60.2165 32.2452 59.2544C32.2452 58.4013 31.6301 57.6896 30.8195 57.5382V47.4363H35.153V52.8423C34.3424 52.993 33.7273 53.7047 33.7273 54.5585C33.7273 55.5214 34.5108 56.3041 35.4729 56.3041C36.4349 56.3041 37.2185 55.5206 37.2185 54.5585C37.2185 53.7054 36.6034 52.9938 35.7928 52.8423V47.4363H39.5274V53.4149L41.5288 55.4163C41.3356 55.6975 41.222 56.0368 41.222 56.403C41.222 57.3659 42.0055 58.1486 42.9676 58.1486C43.9296 58.1486 44.7132 57.3651 44.7132 56.403C44.7132 55.441 43.9296 54.6574 42.9676 54.6574C42.6021 54.6574 42.2621 54.771 41.9808 54.9642L40.1665 53.1498V47.4371H41.4283C42.2126 47.4371 42.9506 47.1318 43.5054 46.577L46.5762 43.5062C47.1311 42.9514 47.4363 42.2142 47.4363 41.4291V40.1672H53.9033L55.7176 41.9816C55.5244 42.2621 55.4109 42.6021 55.4109 42.9684C55.4109 43.9312 56.1944 44.714 57.1564 44.714C58.1185 44.714 58.902 43.9304 58.902 42.9684C58.902 42.0063 58.1185 41.2228 57.1564 41.2228C56.7909 41.2228 56.4509 41.3364 56.1697 41.5295L54.1683 39.5282H47.4363V35.7936H51.7218C51.8725 36.6034 52.5842 37.2193 53.4381 37.2193C54.4009 37.2193 55.1837 36.4357 55.1837 35.4737C55.1837 34.5116 54.4001 33.7281 53.4381 33.7281C52.585 33.7281 51.8733 34.3432 51.7218 35.1538H47.4363V30.8203H57.5382C57.6889 31.6301 58.4005 32.246 59.2544 32.246C60.2172 32.246 61 31.4624 61 30.5004C61 29.5383 60.2165 28.7548 59.2544 28.7548L59.2575 28.7556ZM54.5624 24.4229C55.1721 24.4229 55.6682 24.919 55.6682 25.5286C55.6682 26.1383 55.1721 26.6344 54.5624 26.6344C53.9527 26.6344 53.4566 26.1383 53.4566 25.5286C53.4566 24.919 53.9527 24.4229 54.5624 24.4229ZM56.4061 16.9266C57.0158 16.9266 57.5119 17.4227 57.5119 18.0324C57.5119 18.6421 57.0158 19.1382 56.4061 19.1382C55.7964 19.1382 55.3004 18.6421 55.3004 18.0324C55.3004 17.4227 55.7964 16.9266 56.4061 16.9266ZM42.9715 2.73778C43.5811 2.73778 44.0772 3.23387 44.0772 3.84355C44.0772 4.45324 43.5811 4.94933 42.9715 4.94933C42.3618 4.94933 41.8657 4.45324 41.8657 3.84355C41.8657 3.23387 42.3618 2.73778 42.9715 2.73778ZM34.3702 7.56193C34.3702 6.95224 34.8663 6.45615 35.476 6.45615C36.0857 6.45615 36.5818 6.95224 36.5818 7.56193C36.5818 8.17161 36.0857 8.6677 35.476 8.6677C34.8663 8.6677 34.3702 8.17161 34.3702 7.56193ZM29.3962 1.74559C29.3962 1.13591 29.8923 0.63982 30.5019 0.63982C31.1116 0.63982 31.6077 1.13591 31.6077 1.74559C31.6077 2.35528 31.1116 2.85137 30.5019 2.85137C29.8923 2.85137 29.3962 2.35528 29.3962 1.74559ZM24.4229 6.44147C24.4229 5.83179 24.919 5.33569 25.5286 5.33569C26.1383 5.33569 26.6344 5.83179 26.6344 6.44147C26.6344 7.05115 26.1383 7.54724 25.5286 7.54724C24.919 7.54724 24.4229 7.05115 24.4229 6.44147ZM18.0324 5.70274C17.4227 5.70274 16.9266 5.20665 16.9266 4.59696C16.9266 3.98728 17.4227 3.49119 18.0324 3.49119C18.6421 3.49119 19.1382 3.98728 19.1382 4.59696C19.1382 5.20665 18.6421 5.70274 18.0324 5.70274ZM3.84355 19.1382C3.23387 19.1382 2.73778 18.6421 2.73778 18.0324C2.73778 17.4227 3.23387 16.9266 3.84355 16.9266C4.45324 16.9266 4.94933 17.4227 4.94933 18.0324C4.94933 18.6421 4.45324 19.1382 3.84355 19.1382ZM7.56193 26.6337C6.95224 26.6337 6.45615 26.1376 6.45615 25.5279C6.45615 24.9182 6.95224 24.4221 7.56193 24.4221C8.17161 24.4221 8.6677 24.9182 8.6677 25.5279C8.6677 26.1376 8.17161 26.6337 7.56193 26.6337ZM1.74559 31.6069C1.13591 31.6069 0.63982 31.1108 0.63982 30.5012C0.63982 29.8915 1.13591 29.3954 1.74559 29.3954C2.35528 29.3954 2.85137 29.8915 2.85137 30.5012C2.85137 31.1108 2.35528 31.6069 1.74559 31.6069ZM6.44147 36.581C5.83179 36.581 5.33569 36.0849 5.33569 35.4752C5.33569 34.8655 5.83179 34.3694 6.44147 34.3694C7.05115 34.3694 7.54724 34.8655 7.54724 35.4752C7.54724 36.0849 7.05115 36.581 6.44147 36.581ZM4.59696 44.0765C3.98728 44.0765 3.49119 43.5804 3.49119 42.9707C3.49119 42.361 3.98728 41.8649 4.59696 41.8649C5.20665 41.8649 5.70274 42.361 5.70274 42.9707C5.70274 43.5804 5.20665 44.0765 4.59696 44.0765ZM18.0324 58.2653C17.4227 58.2653 16.9266 57.7692 16.9266 57.1595C16.9266 56.5499 17.4227 56.0538 18.0324 56.0538C18.6421 56.0538 19.1382 56.5499 19.1382 57.1595C19.1382 57.7692 18.6421 58.2653 18.0324 58.2653ZM26.6337 53.4419C26.6337 54.0516 26.1376 54.5477 25.5279 54.5477C24.9182 54.5477 24.4221 54.0516 24.4221 53.4419C24.4221 52.8323 24.9182 52.3362 25.5279 52.3362C26.1376 52.3362 26.6337 52.8323 26.6337 53.4419ZM31.6069 59.2575C31.6069 59.8672 31.1108 60.3633 30.5012 60.3633C29.8915 60.3633 29.3954 59.8672 29.3954 59.2575C29.3954 58.6478 29.8915 58.1517 30.5012 58.1517C31.1108 58.1517 31.6069 58.6478 31.6069 59.2575ZM36.581 54.5624C36.581 55.1721 36.0849 55.6682 35.4752 55.6682C34.8655 55.6682 34.3694 55.1721 34.3694 54.5624C34.3694 53.9527 34.8655 53.4566 35.4752 53.4566C36.0849 53.4566 36.581 53.9527 36.581 54.5624ZM42.9715 55.3011C43.5811 55.3011 44.0772 55.7972 44.0772 56.4069C44.0772 57.0166 43.5811 57.5127 42.9715 57.5127C42.3618 57.5127 41.8657 57.0166 41.8657 56.4069C41.8657 55.7972 42.3618 55.3011 42.9715 55.3011ZM57.1603 41.8657C57.77 41.8657 58.2661 42.3618 58.2661 42.9715C58.2661 43.5811 57.77 44.0772 57.1603 44.0772C56.5506 44.0772 56.0545 43.5811 56.0545 42.9715C56.0545 42.3618 56.5506 41.8657 57.1603 41.8657ZM53.4419 34.3702C54.0516 34.3702 54.5477 34.8663 54.5477 35.476C54.5477 36.0857 54.0516 36.5818 53.4419 36.5818C52.8323 36.5818 52.3362 36.0857 52.3362 35.476C52.3362 34.8663 52.8323 34.3702 53.4419 34.3702ZM46.7996 41.4322C46.7996 42.0457 46.5608 42.6222 46.1265 43.0565L43.0557 46.1273C42.6222 46.5608 42.045 46.7996 41.4314 46.7996H19.5717C18.9581 46.7996 18.3817 46.5608 17.9474 46.1273L14.8766 43.0565C14.4431 42.623 14.2043 42.0457 14.2043 41.4322V19.5717C14.2043 18.9581 14.4431 18.3817 14.8766 17.9474L17.9474 14.8766C18.3809 14.4431 18.9581 14.2035 19.5717 14.2035H41.4322C42.0457 14.2035 42.6222 14.4423 43.0565 14.8766L46.1273 17.9474C46.5608 18.3809 46.8003 18.9581 46.8003 19.5717V41.4322H46.7996ZM59.2575 31.6069C58.6478 31.6069 58.1517 31.1108 58.1517 30.5012C58.1517 29.8915 58.6478 29.3954 59.2575 29.3954C59.8672 29.3954 60.3633 29.8915 60.3633 30.5012C60.3633 31.1108 59.8672 31.6069 59.2575 31.6069Z" fill="white" stroke="white" stroke-width="2" mask="url(#path-1-inside-1_100_228)"/>
    <mask id="path-2-inside-2_100_228" fill="white">
        <path d="M36.9695 22.5347C36.6674 22.2325 36.2664 22.0664 35.8398 22.0664H25.1638C24.7372 22.0664 24.3354 22.2325 24.0341 22.5347L22.5342 24.0345C22.2321 24.3367 22.0659 24.7377 22.0659 25.1643V35.8403C22.0659 36.2668 22.2321 36.6687 22.5342 36.97L24.0341 38.4699C24.3362 38.772 24.7372 38.9382 25.1638 38.9382H35.8398C36.2664 38.9382 36.6682 38.772 36.9695 38.4699L38.4694 36.97C38.7715 36.6679 38.9377 36.2668 38.9377 35.8403V25.1643C38.9377 24.7377 38.7715 24.3359 38.4694 24.0345L36.9695 22.5347ZM38.2971 35.8403C38.2971 36.0961 38.1974 36.3364 38.0166 36.5172L36.5167 38.0171C36.3359 38.1979 36.0956 38.2976 35.8398 38.2976H25.1638C24.908 38.2976 24.6677 38.1979 24.4869 38.0171L22.987 36.5172C22.8062 36.3364 22.7065 36.0961 22.7065 35.8403V25.1643C22.7065 24.9085 22.8062 24.6682 22.987 24.4874L24.4869 22.9875C24.6677 22.8067 24.908 22.707 25.1638 22.707H35.8398C36.0956 22.707 36.3359 22.8067 36.5167 22.9875L38.0166 24.4874C38.1974 24.6682 38.2971 24.9085 38.2971 25.1643V35.8403Z"/>
    </mask>
    <path d="M36.9695 22.5347C36.6674 22.2325 36.2664 22.0664 35.8398 22.0664H25.1638C24.7372 22.0664 24.3354 22.2325 24.0341 22.5347L22.5342 24.0345C22.2321 24.3367 22.0659 24.7377 22.0659 25.1643V35.8403C22.0659 36.2668 22.2321 36.6687 22.5342 36.97L24.0341 38.4699C24.3362 38.772 24.7372 38.9382 25.1638 38.9382H35.8398C36.2664 38.9382 36.6682 38.772 36.9695 38.4699L38.4694 36.97C38.7715 36.6679 38.9377 36.2668 38.9377 35.8403V25.1643C38.9377 24.7377 38.7715 24.3359 38.4694 24.0345L36.9695 22.5347ZM38.2971 35.8403C38.2971 36.0961 38.1974 36.3364 38.0166 36.5172L36.5167 38.0171C36.3359 38.1979 36.0956 38.2976 35.8398 38.2976H25.1638C24.908 38.2976 24.6677 38.1979 24.4869 38.0171L22.987 36.5172C22.8062 36.3364 22.7065 36.0961 22.7065 35.8403V25.1643C22.7065 24.9085 22.8062 24.6682 22.987 24.4874L24.4869 22.9875C24.6677 22.8067 24.908 22.707 25.1638 22.707H35.8398C36.0956 22.707 36.3359 22.8067 36.5167 22.9875L38.0166 24.4874C38.1974 24.6682 38.2971 24.9085 38.2971 25.1643V35.8403Z" fill="white"/>
    <path d="M24.0341 22.5347L24.7412 23.2418L24.7421 23.2409L24.0341 22.5347ZM22.5342 36.97L23.2413 36.2629L23.2404 36.262L22.5342 36.97ZM24.0341 38.4699L23.327 39.177L24.0341 38.4699ZM36.9695 38.4699L36.2624 37.7628L36.2615 37.7637L36.9695 38.4699ZM38.4694 36.97L39.1765 37.6771L38.4694 36.97ZM38.4694 24.0345L37.7623 24.7417L37.7632 24.7426L38.4694 24.0345ZM38.0166 36.5172L37.3095 35.8101L38.0166 36.5172ZM36.5167 38.0171L35.8096 37.31L36.5167 38.0171ZM24.4869 38.0171L25.194 37.31L24.4869 38.0171ZM38.0166 24.4874L37.3095 25.1945L38.0166 24.4874ZM37.6766 21.8276C37.1872 21.3381 36.5319 21.0664 35.8398 21.0664V23.0664C36.0009 23.0664 36.1476 23.127 36.2624 23.2418L37.6766 21.8276ZM35.8398 21.0664H25.1638V23.0664H35.8398V21.0664ZM25.1638 21.0664C24.4725 21.0664 23.8157 21.3376 23.326 21.8285L24.7421 23.2409C24.8552 23.1275 25.002 23.0664 25.1638 23.0664V21.0664ZM23.327 21.8276L21.8271 23.3274L23.2413 24.7417L24.7412 23.2418L23.327 21.8276ZM21.8271 23.3274C21.3376 23.8169 21.0659 24.4722 21.0659 25.1643H23.0659C23.0659 25.0032 23.1265 24.8564 23.2413 24.7417L21.8271 23.3274ZM21.0659 25.1643V35.8403H23.0659V25.1643H21.0659ZM21.0659 35.8403C21.0659 36.5316 21.3371 37.1884 21.828 37.678L23.2404 36.262C23.127 36.1489 23.0659 36.0021 23.0659 35.8403H21.0659ZM21.8271 37.6771L23.327 39.177L24.7412 37.7628L23.2413 36.2629L21.8271 37.6771ZM23.327 39.177C23.8164 39.6665 24.4718 39.9382 25.1638 39.9382V37.9382C25.0027 37.9382 24.856 37.8776 24.7412 37.7628L23.327 39.177ZM25.1638 39.9382H35.8398V37.9382H25.1638V39.9382ZM35.8398 39.9382C36.5311 39.9382 37.1879 39.667 37.6776 39.1761L36.2615 37.7637C36.1484 37.8771 36.0016 37.9382 35.8398 37.9382V39.9382ZM37.6766 39.177L39.1765 37.6771L37.7623 36.2629L36.2624 37.7628L37.6766 39.177ZM39.1765 37.6771C39.666 37.1877 39.9377 36.5323 39.9377 35.8403H37.9377C37.9377 36.0014 37.8771 36.1481 37.7623 36.2629L39.1765 37.6771ZM39.9377 35.8403V25.1643H37.9377V35.8403H39.9377ZM39.9377 25.1643C39.9377 24.473 39.6665 23.8161 39.1756 23.3265L37.7632 24.7426C37.8766 24.8557 37.9377 25.0025 37.9377 25.1643H39.9377ZM39.1765 23.3274L37.6766 21.8276L36.2624 23.2418L37.7623 24.7417L39.1765 23.3274ZM37.2971 35.8403C37.2971 35.8375 37.2978 35.8314 37.3009 35.824C37.3039 35.8166 37.3077 35.8119 37.3095 35.8101L38.7237 37.2243C39.0918 36.8562 39.2971 36.3616 39.2971 35.8403H37.2971ZM37.3095 35.8101L35.8096 37.31L37.2238 38.7242L38.7237 37.2243L37.3095 35.8101ZM35.8096 37.31C35.8114 37.3082 35.8161 37.3044 35.8235 37.3013C35.8309 37.2983 35.837 37.2976 35.8398 37.2976V39.2976C36.3611 39.2976 36.8557 39.0923 37.2238 38.7242L35.8096 37.31ZM35.8398 37.2976H25.1638V39.2976H35.8398V37.2976ZM25.1638 37.2976C25.1666 37.2976 25.1727 37.2983 25.1801 37.3013C25.1875 37.3044 25.1922 37.3082 25.194 37.31L23.7798 38.7242C24.1479 39.0923 24.6425 39.2976 25.1638 39.2976V37.2976ZM25.194 37.31L23.6941 35.8101L22.2799 37.2243L23.7798 38.7242L25.194 37.31ZM23.6941 35.8101C23.6959 35.8119 23.6997 35.8166 23.7027 35.824C23.7058 35.8314 23.7065 35.8375 23.7065 35.8403H21.7065C21.7065 36.3616 21.9118 36.8562 22.2799 37.2243L23.6941 35.8101ZM23.7065 35.8403V25.1643H21.7065V35.8403H23.7065ZM23.7065 25.1643C23.7065 25.167 23.7058 25.1732 23.7027 25.1806C23.6997 25.188 23.6959 25.1927 23.6941 25.1945L22.2799 23.7803C21.9118 24.1484 21.7065 24.6429 21.7065 25.1643H23.7065ZM23.6941 25.1945L25.194 23.6946L23.7798 22.2804L22.2799 23.7803L23.6941 25.1945ZM25.194 23.6946C25.1922 23.6964 25.1875 23.7002 25.1801 23.7032C25.1727 23.7063 25.1666 23.707 25.1638 23.707V21.707C24.6425 21.707 24.1479 21.9123 23.7798 22.2804L25.194 23.6946ZM25.1638 23.707H35.8398V21.707H25.1638V23.707ZM35.8398 23.707C35.837 23.707 35.8309 23.7063 35.8235 23.7032C35.8161 23.7002 35.8114 23.6964 35.8096 23.6946L37.2238 22.2804C36.8557 21.9123 36.3611 21.707 35.8398 21.707V23.707ZM35.8096 23.6946L37.3095 25.1945L38.7237 23.7803L37.2238 22.2804L35.8096 23.6946ZM37.3095 25.1945C37.3077 25.1927 37.3039 25.188 37.3009 25.1806C37.2978 25.1732 37.2971 25.167 37.2971 25.1643H39.2971C39.2971 24.6429 39.0918 24.1484 38.7237 23.7803L37.3095 25.1945ZM37.2971 25.1643V35.8403H39.2971V25.1643H37.2971Z" fill="white" mask="url(#path-2-inside-2_100_228)"/>
    <mask id="path-4-inside-3_100_228" fill="white">
        <path d="M42.15 15.7819C41.9584 15.5902 41.7034 15.4844 41.4314 15.4844H19.5716C19.3004 15.4844 19.0454 15.5902 18.853 15.7819L15.7822 18.8527C15.5905 19.0443 15.4847 19.3001 15.4847 19.5713V41.4318C15.4847 41.7031 15.5905 41.9581 15.7822 42.1505L18.853 45.2213C19.0446 45.4129 19.2996 45.5188 19.5716 45.5188H41.4321C41.7034 45.5188 41.9584 45.4129 42.1508 45.2213L45.2216 42.1505C45.4132 41.9588 45.5191 41.7038 45.5191 41.4318V19.5713C45.5191 19.3001 45.4132 19.0451 45.2216 18.8527L42.1508 15.7819H42.15ZM44.8785 41.4318C44.8785 41.5323 44.8399 41.6266 44.7688 41.6977L41.698 44.7685C41.6269 44.8396 41.5326 44.8782 41.4321 44.8782H19.5716C19.4712 44.8782 19.3769 44.8388 19.3058 44.7685L16.235 41.6977C16.1639 41.6266 16.1253 41.5323 16.1253 41.4318V19.5713C16.1253 19.4709 16.1647 19.3766 16.235 19.3055L19.3058 16.2347C19.3769 16.1636 19.4712 16.125 19.5716 16.125H41.4321C41.5326 16.125 41.6269 16.1644 41.698 16.2347L44.7688 19.3055C44.8399 19.3766 44.8785 19.4709 44.8785 19.5713V41.4318Z"/>
    </mask>
    <path d="M42.15 15.7819C41.9584 15.5902 41.7034 15.4844 41.4314 15.4844H19.5716C19.3004 15.4844 19.0454 15.5902 18.853 15.7819L15.7822 18.8527C15.5905 19.0443 15.4847 19.3001 15.4847 19.5713V41.4318C15.4847 41.7031 15.5905 41.9581 15.7822 42.1505L18.853 45.2213C19.0446 45.4129 19.2996 45.5188 19.5716 45.5188H41.4321C41.7034 45.5188 41.9584 45.4129 42.1508 45.2213L45.2216 42.1505C45.4132 41.9588 45.5191 41.7038 45.5191 41.4318V19.5713C45.5191 19.3001 45.4132 19.0451 45.2216 18.8527L42.1508 15.7819H42.15ZM44.8785 41.4318C44.8785 41.5323 44.8399 41.6266 44.7688 41.6977L41.698 44.7685C41.6269 44.8396 41.5326 44.8782 41.4321 44.8782H19.5716C19.4712 44.8782 19.3769 44.8388 19.3058 44.7685L16.235 41.6977C16.1639 41.6266 16.1253 41.5323 16.1253 41.4318V19.5713C16.1253 19.4709 16.1647 19.3766 16.235 19.3055L19.3058 16.2347C19.3769 16.1636 19.4712 16.125 19.5716 16.125H41.4321C41.5326 16.125 41.6269 16.1644 41.698 16.2347L44.7688 19.3055C44.8399 19.3766 44.8785 19.4709 44.8785 19.5713V41.4318Z" fill="white"/>
    <path d="M42.15 15.7819L41.4429 16.489L41.7358 16.7819H42.15V15.7819ZM18.853 15.7819L18.1473 15.0733L18.1459 15.0748L18.853 15.7819ZM15.7822 42.1505L15.0737 42.8562L15.0751 42.8576L15.7822 42.1505ZM42.1508 45.2213L42.8565 45.9298L42.8579 45.9284L42.1508 45.2213ZM45.2216 18.8527L45.9301 18.147L45.9287 18.1456L45.2216 18.8527ZM42.1508 15.7819L42.8579 15.0748L42.565 14.7819H42.1508V15.7819ZM19.3058 44.7685L18.5987 45.4756L18.6026 45.4794L19.3058 44.7685ZM16.235 41.6977L15.5279 42.4048L16.235 41.6977ZM16.235 19.3055L15.5279 18.5984L15.524 18.6023L16.235 19.3055ZM41.698 16.2347L42.4051 15.5276L42.4012 15.5237L41.698 16.2347ZM44.7688 19.3055L44.0617 20.0126L44.7688 19.3055ZM42.8571 15.0748C42.478 14.6957 41.9687 14.4844 41.4314 14.4844V16.4844C41.4344 16.4844 41.4362 16.4847 41.437 16.4848C41.4377 16.485 41.438 16.4851 41.4381 16.4851C41.4381 16.4851 41.4384 16.4852 41.439 16.4856C41.4396 16.486 41.4409 16.487 41.4429 16.489L42.8571 15.0748ZM41.4314 14.4844H19.5716V16.4844H41.4314V14.4844ZM19.5716 14.4844C19.0344 14.4844 18.5261 14.6961 18.1473 15.0733L19.5587 16.4904C19.5611 16.488 19.5628 16.4867 19.5638 16.4861C19.5647 16.4855 19.5653 16.4852 19.5655 16.4851C19.5657 16.485 19.5661 16.4849 19.5668 16.4848C19.5674 16.4846 19.569 16.4844 19.5716 16.4844V14.4844ZM18.1459 15.0748L15.0751 18.1456L16.4893 19.5598L19.5601 16.489L18.1459 15.0748ZM15.0751 18.1456C14.6957 18.525 14.4847 19.0352 14.4847 19.5713H16.4847C16.4847 19.5665 16.4855 19.5647 16.4855 19.5647C16.4856 19.5646 16.4861 19.563 16.4893 19.5598L15.0751 18.1456ZM14.4847 19.5713V41.4318H16.4847V19.5713H14.4847ZM14.4847 41.4318C14.4847 41.9691 14.6964 42.4774 15.0737 42.8562L16.4907 41.4448C16.4883 41.4424 16.487 41.4406 16.4864 41.4397C16.4858 41.4388 16.4855 41.4382 16.4854 41.438C16.4853 41.4378 16.4852 41.4374 16.4851 41.4367C16.4849 41.436 16.4847 41.4345 16.4847 41.4318H14.4847ZM15.0751 42.8576L18.1459 45.9284L19.5601 44.5142L16.4893 41.4434L15.0751 42.8576ZM18.1459 45.9284C18.525 46.3075 19.0343 46.5188 19.5716 46.5188V44.5188C19.5686 44.5188 19.5668 44.5185 19.5661 44.5184C19.5653 44.5182 19.565 44.5181 19.5649 44.5181C19.5649 44.518 19.5646 44.5179 19.564 44.5175C19.5634 44.5172 19.5621 44.5162 19.5601 44.5142L18.1459 45.9284ZM19.5716 46.5188H41.4321V44.5188H19.5716V46.5188ZM41.4321 46.5188C41.9694 46.5188 42.4777 46.307 42.8565 45.9298L41.4451 44.5128C41.4427 44.5152 41.4409 44.5165 41.44 44.5171C41.4391 44.5177 41.4385 44.518 41.4383 44.5181C41.4381 44.5182 41.4377 44.5183 41.437 44.5184C41.4363 44.5186 41.4348 44.5188 41.4321 44.5188V46.5188ZM42.8579 45.9284L45.9287 42.8576L44.5145 41.4434L41.4437 44.5142L42.8579 45.9284ZM45.9287 42.8576C46.3078 42.4785 46.5191 41.9692 46.5191 41.4318H44.5191C44.5191 41.4349 44.5188 41.4367 44.5187 41.4374C44.5185 41.4382 44.5184 41.4385 44.5184 41.4386C44.5184 41.4386 44.5182 41.4389 44.5178 41.4395C44.5175 41.44 44.5165 41.4414 44.5145 41.4434L45.9287 42.8576ZM46.5191 41.4318V19.5713H44.5191V41.4318H46.5191ZM46.5191 19.5713C46.5191 19.034 46.3073 18.5257 45.9301 18.147L44.5131 19.5584C44.5155 19.5608 44.5168 19.5625 44.5174 19.5635C44.518 19.5644 44.5183 19.565 44.5184 19.5652C44.5185 19.5654 44.5186 19.5658 44.5187 19.5665C44.5189 19.5671 44.5191 19.5687 44.5191 19.5713H46.5191ZM45.9287 18.1456L42.8579 15.0748L41.4437 16.489L44.5145 19.5598L45.9287 18.1456ZM42.1508 14.7819H42.15V16.7819H42.1508V14.7819ZM43.8785 41.4318C43.8785 41.2698 43.9433 41.1089 44.0617 40.9906L45.4759 42.4048C45.7364 42.1442 45.8785 41.7948 45.8785 41.4318H43.8785ZM44.0617 40.9906L40.9909 44.0614L42.4051 45.4756L45.4759 42.4048L44.0617 40.9906ZM40.9909 44.0614C41.1092 43.943 41.2701 43.8782 41.4321 43.8782V45.8782C41.7951 45.8782 42.1446 45.7361 42.4051 45.4756L40.9909 44.0614ZM41.4321 43.8782H19.5716V45.8782H41.4321V43.8782ZM19.5716 43.8782C19.7384 43.8782 19.8957 43.9454 20.0091 44.0575L18.6026 45.4794C18.8581 45.7322 19.204 45.8782 19.5716 45.8782V43.8782ZM20.0129 44.0614L16.9421 40.9906L15.5279 42.4048L18.5987 45.4756L20.0129 44.0614ZM16.9421 40.9906C17.0605 41.1089 17.1253 41.2698 17.1253 41.4318H15.1253C15.1253 41.7948 15.2674 42.1442 15.5279 42.4048L16.9421 40.9906ZM17.1253 41.4318V19.5713H15.1253V41.4318H17.1253ZM17.1253 19.5713C17.1253 19.7381 17.0581 19.8954 16.946 20.0088L15.524 18.6023C15.2713 18.8578 15.1253 19.2037 15.1253 19.5713H17.1253ZM16.9421 20.0126L20.0129 16.9418L18.5987 15.5276L15.5279 18.5984L16.9421 20.0126ZM20.0129 16.9418C19.8946 17.0602 19.7337 17.125 19.5716 17.125V15.125C19.2087 15.125 18.8593 15.2671 18.5987 15.5276L20.0129 16.9418ZM19.5716 17.125H41.4321V15.125H19.5716V17.125ZM41.4321 17.125C41.2654 17.125 41.1081 17.0578 40.9947 16.9457L42.4012 15.5237C42.1457 15.271 41.7998 15.125 41.4321 15.125V17.125ZM40.9909 16.9418L44.0617 20.0126L45.4759 18.5984L42.4051 15.5276L40.9909 16.9418ZM44.0617 20.0126C43.9433 19.8943 43.8785 19.7334 43.8785 19.5713H45.8785C45.8785 19.2084 45.7364 18.8589 45.4759 18.5984L44.0617 20.0126ZM43.8785 19.5713V41.4318H45.8785V19.5713H43.8785Z" fill="white" mask="url(#path-4-inside-3_100_228)"/>
    <path d="M27.7031 31.7276H27.3348L27.2256 32.0794L26.8303 33.3527H26.4303L28.4169 27.6523H29.3609L31.3475 33.3527H30.9432L30.5492 32.0798L30.4402 31.7276H30.0716H27.7031ZM27.5509 31.03L27.3497 31.6783H28.0285H29.7462H30.4245L30.2239 31.0304L29.38 28.305L29.271 27.9528H28.9024H28.8746H28.5063L28.3971 28.3046L27.5509 31.03Z" fill="white" stroke="white"/>
    <path d="M33.2377 33.3527V27.6523H33.6402V33.3527H33.2377Z" fill="white" stroke="white"/>
</svg>